<?xml version="1.0" encoding="UTF-8"?>
<svg width="14px" height="14px" viewBox="0 0 14 14" version="1.1" xmlns="http://www.w3.org/2000/svg" xmlns:xlink="http://www.w3.org/1999/xlink">
    <!-- Generator: Sketch 52.5 (67469) - http://www.bohemiancoding.com/sketch -->
    <title>房源</title>
    <desc>Created with Sketch.</desc>
    <g id="Page-1" stroke="none" stroke-width="1" fill="none" fill-rule="evenodd">
        <g id="1-1-我的课程" transform="translate(-256.000000, -400.000000)">
            <g id="分组-9" transform="translate(240.000000, 365.000000)">
                <g id="分组-copy" transform="translate(16.000000, 8.000000)">
                    <g id="分组-5-copy" transform="translate(0.000000, 25.000000)">
                        <g id="房源" transform="translate(0.000000, 2.000000)">
                            <rect id="矩形" fill="#000000" opacity="0" x="0" y="0" width="14" height="14"></rect>
                            <path d="M11.375,12.2445313 L11.375,7.88867188 L7.85039063,6.12363281 L7.85039063,0.870898438 L2.625,0.870898438 L2.625,12.2445313 L0.879101563,12.2445313 L0.879101563,13.1277344 L13.1291016,13.1277344 L13.1291016,12.2445313 L11.375,12.2445313 Z M7.87363281,9.64140625 L9.62363281,9.64140625 L9.62363281,11.3914063 L7.87363281,11.3914063 L7.87363281,9.64140625 Z M4.35039063,2.61679688 L6.10585938,2.61679688 L6.10585938,4.37226563 L4.35039063,4.37226563 L4.35039063,2.61679688 Z M4.35039063,6.12363281 L6.10585938,6.12363281 L6.10585938,7.87910156 L4.35039063,7.87910156 L4.35039063,6.12363281 Z M4.35039063,9.61816406 L6.10585938,9.61816406 L6.10585938,11.375 L4.35039063,11.375 L4.35039063,9.61816406 Z" id="形状" fill="#FFFFFF" fill-rule="nonzero"></path>
                        </g>
                    </g>
                </g>
            </g>
        </g>
    </g>
</svg>