<?xml version="1.0" encoding="UTF-8"?>
<svg width="36px" height="42px" viewBox="0 0 36 42" version="1.1" xmlns="http://www.w3.org/2000/svg" xmlns:xlink="http://www.w3.org/1999/xlink">
    <!-- Generator: Sketch 54 (76480) - https://sketchapp.com -->
    <title>excel复制 2</title>
    <desc>Created with Sketch.</desc>
    <g id="Page-1" stroke="none" stroke-width="1" fill="none" fill-rule="evenodd">
        <g id="1-3-1-反馈详情-（已回复）" transform="translate(-1191.000000, -740.000000)">
            <g id="excel复制-2" transform="translate(1191.000000, 740.000000)">
                <path d="M2.29326923,0.0423387097 C1.7578125,0.0423387097 1.18665865,0.251915323 0.793990385,0.671068548 C0.401322115,1.09022177 0.151442308,1.61416331 0.151442308,2.13810484 L0.151442308,39.8618952 C0.151442308,40.3858367 0.365625,40.9447077 0.793990385,41.3289315 C1.22235577,41.7480847 1.7578125,41.9576613 2.29326923,41.9576613 L33.7067308,41.9576613 C34.2421875,41.9576613 34.8133413,41.7480847 35.2060096,41.3289315 C35.634375,40.9097782 35.8485577,40.3858367 35.8485577,39.8618952 L35.8485577,11.9183468 L23.7115385,0.0423387097 L2.29326923,0.0423387097 Z" id="路径" fill="#5ACC9B"></path>
                <path d="M35.8485577,11.9183468 L25.8533654,11.9183468 C25.3179087,11.9183468 24.7467548,11.7087702 24.3540865,11.2896169 C23.9257212,10.9053931 23.7115385,10.3465222 23.7115385,9.82258065 L23.7115385,0.0423387097 L35.8485577,11.9183468 Z" id="路径" fill="#BDEBD7"></path>
                <polygon id="路径" fill="#FFFFFF" points="16.3579327 22.1177419 11.503125 15.4811492 14.8586538 15.4811492 18.0356971 20.2315524 21.3555288 15.4811492 24.6039663 15.4811492 19.6420673 22.1177419 24.8538462 29.1734879 21.4626202 29.1734879 17.9643029 24.1436492 14.4659856 29.2084173 11.1461538 29.2084173"></polygon>
            </g>
        </g>
    </g>
</svg>