<?xml version="1.0" encoding="UTF-8"?>
<svg width="36px" height="42px" viewBox="0 0 36 42" version="1.1" xmlns="http://www.w3.org/2000/svg" xmlns:xlink="http://www.w3.org/1999/xlink">
    <!-- Generator: Sketch 54 (76480) - https://sketchapp.com -->
    <title>ppt复制 4</title>
    <desc>Created with Sketch.</desc>
    <g id="Page-1" stroke="none" stroke-width="1" fill="none" fill-rule="evenodd">
        <g id="1-3-1-反馈详情-（已回复）" transform="translate(-1295.000000, -740.000000)">
            <g id="ppt复制-4" transform="translate(1295.000000, 740.000000)">
                <g id="编组-6">
                    <g id="编组-7">
                        <path d="M2.14182692,0 C1.60637019,0 1.03521635,0.209576613 0.642548077,0.628729839 C0.249879808,1.04788306 0,1.5718246 0,2.09576613 L0,39.8195565 C0,40.343498 0.214182692,40.902369 0.642548077,41.2865927 C1.07091346,41.705746 1.60637019,41.9153226 2.14182692,41.9153226 L33.5552885,41.9153226 C34.0907452,41.9153226 34.661899,41.705746 35.0545673,41.2865927 C35.4829327,40.8674395 35.6971154,40.343498 35.6971154,39.8195565 L35.6971154,11.8760081 L23.5600962,0 L2.14182692,0 Z" id="路径" fill="#CCCCCC"></path>
                        <path d="M35.8485577,11.9183468 L25.8533654,11.9183468 C25.3179087,11.9183468 24.7467548,11.7087702 24.3540865,11.2896169 C23.9257212,10.9053931 23.7115385,10.3465222 23.7115385,9.82258065 L23.7115385,0.0423387097 L35.8485577,11.9183468 Z" id="路径" fill="#EEEEEE"></path>
                    </g>
                    <text id="?" font-family="PingFangSC-Medium, PingFang SC" font-size="24" font-weight="400" fill="#FFFFFF">
                        <tspan x="12" y="31">?</tspan>
                    </text>
                </g>
            </g>
        </g>
    </g>
</svg>