<?xml version="1.0" encoding="UTF-8"?>
<svg width="75px" height="84px" viewBox="0 0 75 84" version="1.1" xmlns="http://www.w3.org/2000/svg" xmlns:xlink="http://www.w3.org/1999/xlink">
    <!-- Generator: Sketch 54 (76480) - https://sketchapp.com -->
    <title>pdf复制</title>
    <desc>Created with Sketch.</desc>
    <g id="Page-1" stroke="none" stroke-width="1" fill="none" fill-rule="evenodd">
        <g id="1-3-1-反馈详情-（已回复）" transform="translate(-630.000000, -270.000000)">
            <g id="分组-2" transform="translate(276.000000, 270.000000)">
                <g id="pdf复制" transform="translate(354.000000, 0.000000)">
                    <path d="M4.5,0 C3.375,0 2.175,0.42 1.35,1.26 C0.525,2.1 0,3.15 0,4.2 L0,79.8 C0,80.85 0.45,81.97 1.35,82.74 C2.25,83.58 3.375,84 4.5,84 L70.5,84 C71.625,84 72.825,83.58 73.65,82.74 C74.55,81.9 75,80.85 75,79.8 L75,23.8 L49.5,0 L4.5,0 Z" id="路径" fill="#FF5562"></path>
                    <path d="M75,23 L54.4117647,23 C53.3088235,23 52.1323529,22.5941176 51.3235294,21.7823529 C50.4411765,21.0382353 50,19.9558824 50,18.9411765 L50,0 L75,23 Z" id="路径" fill="#FFBBC0"></path>
                    <path d="M55.4325852,70 C50.6533774,70 46.4051926,62.5556161 44.1293793,57.7305525 C40.3363572,56.2830334 36.1640329,54.9733733 32.1434295,54.0772901 C28.5779887,56.214104 22.5850138,59.3848601 17.9575268,59.3848601 C15.07483,59.3848601 13.0265981,58.0751999 12.2679936,55.8005271 C11.6611101,53.9394311 12.1921332,52.629771 12.7990167,51.9404762 C14.0127838,50.4240276 16.5161784,49.6658033 20.3092005,49.6658033 C23.3436182,49.6658033 27.2125007,50.1483097 31.5365459,51.1133224 C34.3433823,49.3211559 37.1502187,47.2532715 39.6536132,45.0475282 C38.5157066,40.2224646 37.3019395,32.4334333 40.4122177,28.8491003 C41.9294265,27.1258633 44.2811002,26.5744275 47.0879366,27.3326518 C50.1982147,28.1598055 51.3361213,29.8830425 51.7154235,31.1927027 C53.0050511,35.8799073 47.0879366,42.2214195 43.0673331,45.9436114 C43.9776584,49.183297 45.1155651,52.5608415 46.5569135,55.6626681 C52.3223071,58.0062704 59.1497469,61.4527445 59.9083513,65.2438659 C60.2117931,66.553526 59.7566304,67.7942566 58.6187238,68.8281988 C57.632538,69.5864231 56.5704918,70 55.4325852,70 Z M48.3775641,59.522719 C51.2602609,64.830289 53.9912368,67.3117503 55.4325852,67.3117503 C55.6601665,67.3117503 55.9636083,67.2428208 56.418771,66.8981734 C56.9497941,66.415667 56.9497941,66.0710196 56.8739336,65.7953017 C56.5704918,64.4167121 54.1429577,62.1420393 48.3775641,59.522719 L48.3775641,59.522719 Z M20.3092005,52.4229826 C16.5920388,52.4229826 15.5299926,53.2501363 15.2265509,53.5947837 C15.1506904,53.7326427 14.8472487,54.0772901 15.1506904,55.0423028 C15.3782718,55.8694566 15.9851553,56.6966103 17.9575268,56.6966103 C20.3850609,56.6966103 23.8746413,55.4558797 27.9711052,53.2501363 C25.0125479,52.6987005 22.4332929,52.4229826 20.3092005,52.4229826 L20.3092005,52.4229826 Z M35.329568,52.0094057 C37.7571022,52.629771 40.2604968,53.3879953 42.6121705,54.215149 C41.7777056,52.2161941 41.0949616,50.1483097 40.4880781,48.1493548 C38.8191484,49.4590149 37.0743582,50.768675 35.329568,52.0094057 Z M44.7362629,29.7451836 C43.901798,29.7451836 43.2949145,30.0209015 42.7638914,30.5723373 C41.1708221,32.3645038 41.0191012,36.9138495 42.2328683,42.7039258 C46.8603552,38.2235096 49.3637498,34.0877408 48.7568663,31.8819975 C48.6810059,31.5373501 48.3775641,30.5723373 46.2534717,30.0209015 C45.6465882,29.8141131 45.1914255,29.7451836 44.7362629,29.7451836 L44.7362629,29.7451836 Z" id="形状" fill="#FFFFFF" fill-rule="nonzero"></path>
                </g>
            </g>
        </g>
    </g>
</svg>