<?xml version="1.0" encoding="UTF-8"?>
<svg width="36px" height="42px" viewBox="0 0 36 42" version="1.1" xmlns="http://www.w3.org/2000/svg" xmlns:xlink="http://www.w3.org/1999/xlink">
    <!-- Generator: Sketch 54 (76480) - https://sketchapp.com -->
    <title>ppt复制 3</title>
    <desc>Created with Sketch.</desc>
    <g id="Page-1" stroke="none" stroke-width="1" fill="none" fill-rule="evenodd">
        <g id="1-3-1-反馈详情-（已回复）" transform="translate(-1243.000000, -740.000000)">
            <g id="ppt复制-3" transform="translate(1243.000000, 740.000000)">
                <path d="M2.29326923,0.0423387097 C1.7578125,0.0423387097 1.18665865,0.251915323 0.793990385,0.671068548 C0.401322115,1.09022177 0.151442308,1.61416331 0.151442308,2.13810484 L0.151442308,39.8618952 C0.151442308,40.3858367 0.365625,40.9447077 0.793990385,41.3289315 C1.22235577,41.7480847 1.7578125,41.9576613 2.29326923,41.9576613 L33.7067308,41.9576613 C34.2421875,41.9576613 34.8133413,41.7480847 35.2060096,41.3289315 C35.634375,40.9097782 35.8485577,40.3858367 35.8485577,39.8618952 L35.8485577,11.9183468 L23.7115385,0.0423387097 L2.29326923,0.0423387097 Z" id="路径" fill="#FF8976"></path>
                <path d="M35.8485577,11.9183468 L25.8533654,11.9183468 C25.3179087,11.9183468 24.7467548,11.7087702 24.3540865,11.2896169 C23.9257212,10.9053931 23.7115385,10.3465222 23.7115385,9.82258065 L23.7115385,0.0423387097 L35.8485577,11.9183468 Z" id="路径" fill="#FFD0C8"></path>
                <path d="M12.3598558,15.4811492 L20.2132212,15.4811492 C23.3545673,15.4811492 24.3540865,17.5419859 24.3540865,19.7425403 C24.3540865,21.8383065 23.1046875,23.969002 20.2489183,23.969002 L15.0371394,23.969002 L15.0371394,29.2084173 L12.3598558,29.2084173 L12.3598558,15.4811492 Z M15.0371394,21.8383065 L19.3564904,21.8383065 C20.8914663,21.8383065 21.7125,21.3842238 21.7125,19.7774698 C21.7125,18.1008569 20.6058894,17.6817036 19.5706731,17.6817036 L15.0371394,17.6817036 L15.0371394,21.8383065 Z" id="形状" fill="#FFFFFF" fill-rule="nonzero"></path>
            </g>
        </g>
    </g>
</svg>