<?xml version="1.0" encoding="UTF-8"?>
<svg width="14px" height="14px" viewBox="0 0 14 14" version="1.1" xmlns="http://www.w3.org/2000/svg" xmlns:xlink="http://www.w3.org/1999/xlink">
    <!-- Generator: Sketch 52.5 (67469) - http://www.bohemiancoding.com/sketch -->
    <title>人才</title>
    <desc>Created with Sketch.</desc>
    <g id="Page-1" stroke="none" stroke-width="1" fill="none" fill-rule="evenodd">
        <g id="1-1-我的课程" transform="translate(-256.000000, -438.000000)">
            <g id="分组-9" transform="translate(240.000000, 365.000000)">
                <g id="分组-copy" transform="translate(16.000000, 8.000000)">
                    <g id="分组-7-copy" transform="translate(0.000000, 63.000000)">
                        <g id="人才" transform="translate(0.000000, 2.000000)">
                            <rect id="矩形" fill="#D9D9D9" opacity="0" x="0" y="0" width="14" height="14"></rect>
                            <path d="M5.91472981,13.8942118 C5.93747125,13.6799174 5.95234066,13.4918631 5.97770612,13.3073076 C6.02143966,12.9854287 6.07391992,12.6661738 6.12115216,12.3451696 C6.1438936,12.1842301 6.15876301,12.022416 6.17800576,11.8614766 L6.27684357,11.1180063 C6.29608633,10.9745603 6.31532909,10.8293649 6.33107317,10.6850442 C6.35293994,10.4690005 6.36868402,10.2520821 6.39230014,10.0360384 C6.40454553,9.92058183 6.42903631,9.80599995 6.44040704,9.69054338 C6.46489782,9.45263289 6.36693468,9.23833853 6.3030837,9.01704679 C6.2820916,8.9383264 6.25147812,8.85960603 6.24098207,8.78001097 C6.23835805,8.75464552 6.28821429,8.69779191 6.31357975,8.69779191 C6.77715532,8.69254388 7.23985624,8.69429322 7.70255714,8.69429322 C7.76903214,8.69429322 7.79352292,8.7100373 7.76903214,8.78438433 C7.71655188,8.94095042 7.67631703,9.09926585 7.63258348,9.25670661 C7.61509005,9.31968292 7.59322328,9.38265922 7.58272723,9.44738487 C7.54599106,9.66780194 7.5774792,9.88472033 7.6229621,10.1033881 C7.65619959,10.2582048 7.66669564,10.4165202 7.68156505,10.573961 C7.70255714,10.8031248 7.71480254,11.0331632 7.74279201,11.2614523 C7.78565089,11.5955766 7.83900581,11.9279516 7.88536336,12.2612012 C7.90723013,12.4098952 7.92559823,12.5585893 7.93959296,12.7072833 C7.9623344,12.9320738 7.97895315,13.1577388 8.00081992,13.3816546 C8.01393999,13.5189779 8.03230807,13.6554266 8.05417485,13.7910006 C8.05767354,13.8172407 8.09266038,13.8382328 8.13551924,13.8863397 C8.20024489,13.6388079 8.25185048,13.4253881 8.3113281,13.2137178 C8.37080572,12.9967994 8.43903006,12.782505 8.50113169,12.5664613 C8.54399057,12.4160179 8.57985208,12.2629505 8.62008693,12.1116325 C8.66644448,11.9471943 8.71542605,11.7836309 8.76003428,11.6183181 C8.80201849,11.4678747 8.83700532,11.3156819 8.87986419,11.1652385 C8.92359773,11.0034244 8.97170464,10.842485 9.01718752,10.6806709 C9.05742239,10.5319768 9.09678258,10.3797841 9.13876678,10.2302153 C9.18512433,10.0605292 9.23498057,9.89259235 9.28133813,9.72203154 C9.32244766,9.5672148 9.3574345,9.4106487 9.39941871,9.25670661 C9.44315225,9.09489249 9.49388316,8.93482772 9.53936604,8.77476294 C9.58047558,8.62781823 9.61633709,8.47999885 9.65657195,8.33305414 C9.67406538,8.26570447 9.67581471,8.17561338 9.71954826,8.1388772 C9.77202852,8.09514366 9.87611435,8.06715419 9.93646664,8.08814628 C10.2163613,8.18785877 10.4875093,8.30943802 10.7639053,8.41702254 C11.049048,8.52810575 11.3376894,8.63131692 11.6237068,8.73977611 C11.8511213,8.82636853 12.0785357,8.91383562 12.3042008,9.00392673 C12.5954662,9.12025796 12.8736115,9.25758128 13.1281408,9.44213684 C13.3573045,9.60919898 13.5374868,9.81474665 13.6398233,10.0718999 C13.6861808,10.1856071 13.6844315,10.3168077 13.6975515,10.4418857 C13.720293,10.6701748 13.7325384,10.9002132 13.7561545,11.129377 C13.7850186,11.3987757 13.8208801,11.6672996 13.8523683,11.9366983 L13.855867,11.9734344 C13.8759844,12.2463318 13.8952272,12.5166051 13.9170939,12.7877531 C13.9319633,12.9758073 13.9468327,13.1638615 13.9721982,13.3492918 C14.0115584,13.6493039 13.6870555,13.9615614 13.3660513,13.9589374 C11.6062134,13.9431933 9.8472502,13.9475667 8.085663,13.9475667 C5.61471769,13.9475667 3.14289772,13.949316 0.670203075,13.9554387 C0.45066068,13.9554387 0.260857088,13.9082065 0.138403163,13.7332723 C-0.00854154834,13.5216019 -0.0277843159,13.2784434 0.030818645,13.0317862 C0.0369413481,13.0072955 0.0500613989,12.9836793 0.0500613989,12.9600632 C0.0719281685,12.6924139 0.0867975767,12.4247646 0.113037706,12.15799 C0.136653819,11.9305756 0.174264668,11.7040358 0.204003471,11.477496 L0.208376831,11.4398852 C0.228494256,11.1731106 0.224995583,10.9010879 0.274851825,10.6395613 C0.322958723,10.3850321 0.281849186,10.1147588 0.455908698,9.87772296 C0.630842881,9.64418583 0.837265211,9.45263289 1.07954905,9.29956549 C1.44866017,9.06515369 1.8685022,8.93745173 2.27609885,8.78263499 C2.59710307,8.66018106 2.91285926,8.52548174 3.23298882,8.39777979 C3.50151279,8.29106994 3.77266077,8.18523475 4.04468342,8.08639694 C4.17063604,8.03916471 4.28521791,8.12575713 4.31408206,8.25433376 C4.35256758,8.42052124 4.40942118,8.58408469 4.45402941,8.75027216 C4.49513895,8.90071555 4.53012578,9.05290828 4.5712353,9.20422637 C4.61584351,9.36953917 4.6674491,9.53310262 4.712932,9.69929009 C4.75229219,9.84536013 4.78902837,9.99317951 4.83013789,10.1401242 C4.89398887,10.3727867 4.96133852,10.6036998 5.0251895,10.8372369 C5.06629904,10.983307 5.10216054,11.1302517 5.14064606,11.2763217 C5.18787829,11.4468826 5.23860921,11.6148194 5.28496676,11.7845055 C5.3260763,11.9358236 5.36018846,12.0880163 5.40217267,12.2393344 C5.44765555,12.4046472 5.49751179,12.5682107 5.54212002,12.7335235 C5.58410423,12.8848415 5.62171508,13.0361596 5.66107526,13.1883523 C5.71530486,13.3982733 5.7677851,13.609069 5.82638805,13.8181154 C5.83251075,13.8443555 5.8727456,13.8592249 5.91472981,13.8942118 Z M3.72192986,3.49787337 C3.77091143,3.23109875 3.82776503,2.90047314 3.89424002,2.57072222 C3.97121107,2.17974433 4.14789458,1.82725195 4.3639383,1.49312766 C4.67512065,1.00568665 5.10964504,0.609183137 5.62346441,0.34381009 C5.85962555,0.221356164 6.10803209,0.121643679 6.37568139,0.0814088142 C6.57423168,0.0525446697 6.77190731,0.00181375562 6.9704576,6.4425546e-05 C7.17687993,-0.0016849182 7.38592628,0.0324272439 7.58972459,0.073536781 C7.78040286,0.112022302 7.97195578,0.165377232 8.15126332,0.238849588 C8.64555758,0.439888578 9.0805219,0.763477949 9.41516277,1.1791208 C9.66619333,1.48700496 9.86386895,1.82025457 10.007315,2.18149366 C10.0904087,2.38879066 10.1315182,2.61358109 10.1778758,2.83312348 C10.2181107,3.03167378 10.2653429,3.2354721 10.2635936,3.43664641 C10.2547998,3.71536636 10.2279201,3.99322139 10.1831238,4.26845845 C10.1612571,4.43114724 10.1140248,4.58946267 10.076414,4.74952744 C10.0055656,5.05566226 9.86999166,5.33555694 9.72479628,5.61282763 C9.47726441,6.08514992 9.14226545,6.48574919 8.72504743,6.82424683 C8.4550762,7.04635444 8.14596518,7.21603919 7.81364035,7.32455859 C7.51537757,7.42077238 7.21274144,7.48724738 6.90048392,7.46712994 C6.40199197,7.43657791 5.92095557,7.27220367 5.50800784,6.99130897 C5.13714738,6.74027842 4.81264447,6.43939163 4.57210998,6.06503248 C4.40159744,5.80653235 4.24820161,5.53714006 4.11290775,5.25858591 C4.00182454,5.02067542 3.92835219,4.76352218 3.85487983,4.51074228 C3.81639431,4.383915 3.81027162,4.24834101 3.79365287,4.11714037 C3.77091143,3.93345949 3.75079399,3.75152794 3.72192986,3.49787337 Z" id="形状" fill="#FFFFFF" fill-rule="nonzero"></path>
                        </g>
                    </g>
                </g>
            </g>
        </g>
    </g>
</svg>