<?xml version="1.0" encoding="UTF-8"?>
<svg width="13px" height="13px" viewBox="0 0 13 13" version="1.1" xmlns="http://www.w3.org/2000/svg" xmlns:xlink="http://www.w3.org/1999/xlink">
    <!-- Generator: Sketch 52.5 (67469) - http://www.bohemiancoding.com/sketch -->
    <title>时间</title>
    <desc>Created with Sketch.</desc>
    <g id="Page-1" stroke="none" stroke-width="1" fill="none" fill-rule="evenodd">
        <g id="1-1-我的课程" transform="translate(-256.000000, -420.000000)">
            <g id="分组-9" transform="translate(240.000000, 365.000000)">
                <g id="分组-copy" transform="translate(16.000000, 8.000000)">
                    <g id="分组-6-copy" transform="translate(0.000000, 44.000000)">
                        <g id="时间" transform="translate(0.000000, 2.000000)">
                            <rect id="矩形" fill="#999999" opacity="0" x="0" y="0" width="14" height="14"></rect>
                            <path d="M6.87555556,1.02666666 C3.51555556,1.02666666 0.808888883,3.73333334 0.808888883,7.09333334 C0.808888883,10.4533333 3.54666666,13.16 6.87555556,13.16 C10.2355556,13.16 12.9422222,10.4533333 12.9422222,7.09333334 C12.9422222,3.73333334 10.2044444,1.02666666 6.87555556,1.02666666 Z M10.8266667,8.92888888 C10.7333333,9.11555554 10.5777778,9.20888888 10.3911111,9.20888888 C10.3288889,9.20888888 10.2666667,9.20888888 10.2044444,9.17777778 L6.62666666,7.56 C6.4711111,7.49777778 6.34666666,7.31111112 6.34666666,7.12444444 L6.34666666,3.76444444 C6.34666666,3.51555556 6.56444444,3.29777778 6.81333334,3.29777778 C7.06222223,3.29777778 7.28,3.51555556 7.28,3.76444444 L7.28,6.84444444 L10.5777778,8.33777778 C10.8266667,8.43111112 10.92,8.68 10.8266667,8.92888888 Z" id="形状" fill="#FFFFFF" fill-rule="nonzero"></path>
                        </g>
                    </g>
                </g>
            </g>
        </g>
    </g>
</svg>