<?xml version="1.0" encoding="UTF-8"?>
<svg width="36px" height="42px" viewBox="0 0 36 42" version="1.1" xmlns="http://www.w3.org/2000/svg" xmlns:xlink="http://www.w3.org/1999/xlink">
    <!-- Generator: Sketch 54 (76480) - https://sketchapp.com -->
    <title>word复制 3</title>
    <desc>Created with Sketch.</desc>
    <g id="Page-1" stroke="none" stroke-width="1" fill="none" fill-rule="evenodd">
        <g id="1-3-1-反馈详情-（已回复）" transform="translate(-1139.000000, -740.000000)">
            <g id="word复制-3" transform="translate(1139.000000, 740.000000)">
                <path d="M2.29326923,0.0423387097 C1.7578125,0.0423387097 1.18665865,0.251915323 0.793990385,0.671068548 C0.401322115,1.09022177 0.151442308,1.61416331 0.151442308,2.13810484 L0.151442308,39.8618952 C0.151442308,40.3858367 0.365625,40.9447077 0.793990385,41.3289315 C1.22235577,41.7480847 1.7578125,41.9576613 2.29326923,41.9576613 L33.7067308,41.9576613 C34.2421875,41.9576613 34.8133413,41.7480847 35.2060096,41.3289315 C35.634375,40.9097782 35.8485577,40.3858367 35.8485577,39.8618952 L35.8485577,11.9183468 L23.7115385,0.0423387097 L2.29326923,0.0423387097 Z" id="路径" fill="#6CA2FF"></path>
                <path d="M35.8485577,11.9183468 L25.8533654,11.9183468 C25.3179087,11.9183468 24.7467548,11.7087702 24.3540865,11.2896169 C23.9257212,10.9053931 23.7115385,10.3465222 23.7115385,9.82258065 L23.7115385,0.0423387097 L35.8485577,11.9183468 Z" id="路径" fill="#C4EAFF"></path>
                <polygon id="路径" fill="#FFFFFF" points="7.64783654 15.4811492 10.5393029 15.4811492 13.4307692 26.134627 13.4664663 26.134627 16.6435096 15.4811492 19.4278846 15.4811492 22.640625 26.134627 25.5677885 15.4811492 28.3521635 15.4811492 24.0685096 29.2084173 21.1770433 29.2084173 18 18.6597278 17.9643029 18.6597278 14.7515625 29.1734879 11.8600962 29.1734879"></polygon>
            </g>
        </g>
    </g>
</svg>