<svg xmlns="http://www.w3.org/2000/svg" viewBox="0 0 24 24"><defs><style>.cls-1{fill:#fff}</style></defs><title>应用</title><g id="图层_2" data-name="图层 2"><path class="cls-1" d="M7 1a3 3 0 0 1 3 3v3a3 3 0 0 1-3 3H4a3 3 0 0 1-3-3V4a3 3 0 0 1 3-3h3m0-1H4a4 4 0 0 0-4 4v3a4 4 0 0 0 4 4h3a4 4 0 0 0 4-4V4a4 4 0 0 0-4-4zm13 14a3 3 0 0 1 3 3v3a3 3 0 0 1-3 3h-3a3 3 0 0 1-3-3v-3a3 3 0 0 1 3-3h3m0-1h-3a4 4 0 0 0-4 4v3a4 4 0 0 0 4 4h3a4 4 0 0 0 4-4v-3a4 4 0 0 0-4-4zM7 14a3 3 0 0 1 3 3v3a3 3 0 0 1-3 3H4a3 3 0 0 1-3-3v-3a3 3 0 0 1 3-3h3m0-1H4a4 4 0 0 0-4 4v3a4 4 0 0 0 4 4h3a4 4 0 0 0 4-4v-3a4 4 0 0 0-4-4zM20 1a3 3 0 0 1 3 3v3a3 3 0 0 1-3 3h-3a3 3 0 0 1-3-3V4a3 3 0 0 1 3-3h3m0-1h-3a4 4 0 0 0-4 4v3a4 4 0 0 0 4 4h3a4 4 0 0 0 4-4V4a4 4 0 0 0-4-4z" id="图层_1-2" data-name="图层 1"/></g></svg>