<svg xmlns="http://www.w3.org/2000/svg" viewBox="0 0 24 24"><defs><style>.cls-1{fill:#fff;stroke:#fff;stroke-miterlimit:10}</style></defs><title>通讯录_1</title><g id="图层_2" data-name="图层 2"><path class="cls-1" d="M2.2 23.5h19.54a2.72 2.72 0 0 0 .59-.05 1.24 1.24 0 0 0 1.1-1 2.85 2.85 0 0 0 0-1.25A2.17 2.17 0 0 0 22 19.6l-3.42-1.34-2.07-.81a5.38 5.38 0 0 1-1.58-.87 1.5 1.5 0 0 1-.49-.83 3.09 3.09 0 0 1 .33-2 11.48 11.48 0 0 1 .63-1l.25-.38A17.72 17.72 0 0 0 17 10a6.12 6.12 0 0 0 .61-2.27 8.2 8.2 0 0 0-.89-4 6.1 6.1 0 0 0-2-2.4A4.75 4.75 0 0 0 12 .5a4.71 4.71 0 0 0-2 .5 6.09 6.09 0 0 0-3 3.26 8.13 8.13 0 0 0-.63 2.48 5.88 5.88 0 0 0 .09 1.93 8.55 8.55 0 0 0 .85 2.23c.41.74.87 1.48 1.31 2.2l.27.44a2.65 2.65 0 0 1 .42 1.31A1.85 1.85 0 0 1 8.1 17c-.24.11-.5.21-.75.31l-.55.22-.16.07C5 18.25 3.46 19 1.88 19.67a2.23 2.23 0 0 0-1.31 1.44 3.27 3.27 0 0 0-.06 1v.13a1.11 1.11 0 0 0 .46.89 1.9 1.9 0 0 0 1.23.36M12 .5" id="图层_1-2" data-name="图层 1"/></g></svg>