<?xml version="1.0" standalone="no"?><!DOCTYPE svg PUBLIC "-//W3C//DTD SVG 1.1//EN" "http://www.w3.org/Graphics/SVG/1.1/DTD/svg11.dtd"><svg t="1506589499652" class="icon" style="" viewBox="0 0 1817 1024" version="1.1" xmlns="http://www.w3.org/2000/svg" p-id="1610" xmlns:xlink="http://www.w3.org/1999/xlink" width="56.78125" height="32"><defs><style type="text/css"></style></defs><path d="M744.76266 659.405708L874.986843 691.673647a441.37931 441.37931 0 0 1-147.510579 247.771676A407.958945 407.958945 0 0 1 461.265766 1023.57245a470.18997 470.18997 0 0 1-260.448366-65.688305A406.806518 406.806518 0 0 1 52.154395 770.038642 673.017016 673.017016 0 0 1 0.295207 504.980571 583.127757 583.127757 0 0 1 59.068953 230.703088 404.501666 404.501666 0 0 1 230.780487 60.143981 490.933645 490.933645 0 0 1 467.027898 0.217809a405.654092 405.654092 0 0 1 250.076529 76.060142A392.977402 392.977402 0 0 1 858.852874 288.324408l-129.071757 29.963086a305.392995 305.392995 0 0 0-100.261097-156.72999A266.210498 266.210498 0 0 0 461.265766 115.460448a320.374539 320.374539 0 0 0-191.302782 54.164041 289.259026 289.259026 0 0 0-107.175655 146.358153 591.194742 591.194742 0 0 0-31.115512 190.150355 603.871432 603.871432 0 0 0 36.877644 220.113442 274.277483 274.277483 0 0 0 115.24264 140.596021 321.526965 321.526965 0 0 0 168.254254 46.097056 281.192041 281.192041 0 0 0 186.693077-63.383452 324.984244 324.984244 0 0 0 106.023228-190.150356zM1037.478965 1007.43848V17.504205h131.37661v405.654092h513.982173V17.504205h131.376609v989.934275h-127.91933v-460.970559h-513.982173v460.970559z" p-id="1611" fill="#ffffff"></path></svg>