<?xml version="1.0" standalone="no"?><!DOCTYPE svg PUBLIC "-//W3C//DTD SVG 1.1//EN" "http://www.w3.org/Graphics/SVG/1.1/DTD/svg11.dtd"><svg t="1506483649554" class="icon" style="" viewBox="0 0 1024 1024" version="1.1" xmlns="http://www.w3.org/2000/svg" p-id="3351" xmlns:xlink="http://www.w3.org/1999/xlink" width="32" height="32"><defs><style type="text/css"></style></defs><path d="M661.333333 1024h-341.333333C166.4 1024 42.666667 900.266667 42.666667 746.666667v-469.333334C42.666667 123.733333 166.4 0 320 0h341.333333C814.933333 0 938.666667 123.733333 938.666667 277.333333c0 12.8-8.533333 21.333333-21.333334 21.333334s-21.333333-8.533333-21.333333-21.333334c0-128-106.666667-234.666667-234.666667-234.666666h-341.333333C192 42.666667 85.333333 149.333333 85.333333 277.333333v469.333334c0 128 106.666667 234.666667 234.666667 234.666666h341.333333c128 0 234.666667-106.666667 234.666667-234.666666 0-12.8 8.533333-21.333333 21.333333-21.333334s21.333333 8.533333 21.333334 21.333334c0 153.6-123.733333 277.333333-277.333334 277.333333z" p-id="3352" fill="#ffffff"></path><path d="M960 533.333333h-469.333333c-12.8 0-21.333333-8.533333-21.333334-21.333333s8.533333-21.333333 21.333334-21.333333h469.333333c12.8 0 21.333333 8.533333 21.333333 21.333333s-8.533333 21.333333-21.333333 21.333333z" p-id="3353" fill="#ffffff"></path><path d="M759.466667 729.6c-4.266667 0-12.8 0-17.066667-4.266667-8.533333-8.533333-8.533333-21.333333 0-29.866666l183.466667-183.466667-183.466667-183.466667c-8.533333-8.533333-8.533333-21.333333 0-29.866666s21.333333-8.533333 29.866667 0l200.533333 200.533333c4.266667 4.266667 4.266667 8.533333 4.266667 17.066667 0 4.266667-4.266667 12.8-4.266667 17.066666L776.533333 725.333333c-4.266667 4.266667-8.533333 4.266667-17.066666 4.266667z" p-id="3354" fill="#ffffff"></path></svg>