<svg xmlns="http://www.w3.org/2000/svg" viewBox="0 0 24 24"><defs><style>.cls-1{fill:#fff}</style></defs><title>消息资源 3</title><g id="图层_2" data-name="图层 2"><path class="cls-1" d="M5 24v-3.83a.49.49 0 0 0-.21-.4A10.62 10.62 0 0 1 0 11C0 4.93 5.38 0 12 0s12 4.93 12 11-5.38 11-12 11a13.1 13.1 0 0 1-2.86-.31.45.45 0 0 0-.33.05zm7-23C5.93 1 1 5.5 1 11a9.58 9.58 0 0 0 4.36 7.9A1.55 1.55 0 0 1 6 20.17v2l2.3-1.39a1.4 1.4 0 0 1 1-.17 12.17 12.17 0 0 0 2.65.29c6.07 0 11-4.46 11-9.94S18.07 1 12 1z" id="图层_1-2" data-name="图层 1"/></g></svg>