<?xml version="1.0" standalone="no"?><!DOCTYPE svg PUBLIC "-//W3C//DTD SVG 1.1//EN" "http://www.w3.org/Graphics/SVG/1.1/DTD/svg11.dtd"><svg t="1505732328039" class="icon" style="" viewBox="0 0 1112 1024" version="1.1" xmlns="http://www.w3.org/2000/svg" p-id="2520" xmlns:xlink="http://www.w3.org/1999/xlink" width="28.234375" height="26"><defs><style type="text/css"></style></defs><path d="M556.061929 1023.994693a22.150403 22.150403 0 0 1-10.106122-2.445774l-533.73243-272.265375A22.288843 22.288843 0 0 1 0.640562 724.50278a23.073337 23.073337 0 0 1 32.533405-14.259322l522.841815 266.543188L1079.872824 709.828137a22.242697 22.242697 0 1 1 20.212243 39.639993l-533.778577 272.265376a22.150403 22.150403 0 0 1-10.244561 2.261187z m0-136.040394a22.05811 22.05811 0 0 1-10.106122-2.445774l-533.73243-272.265376a22.33499 22.33499 0 1 1 22.519577-38.486326l521.457415 265.758695L1079.872824 573.787743a22.242697 22.242697 0 0 1 20.212243 39.639993l-533.778577 272.265376a22.150403 22.150403 0 0 1-10.244561 2.261187z m0-136.040395a22.150403 22.150403 0 0 1-10.106122-2.445774l-533.73243-272.265376a22.33499 22.33499 0 0 1 18.73555-40.286046 23.073337 23.073337 0 0 1 3.876321 2.076601l521.226681 265.712548L1079.872824 437.793495a22.242697 22.242697 0 0 1 20.212243 39.639993l-533.778577 272.265376a22.150403 22.150403 0 0 1-10.244561 2.21504z m0-163.220785a22.150403 22.150403 0 0 1-10.106122-2.445774L12.177231 314.166556a22.242697 22.242697 0 0 1 0-39.639993L545.955807 2.445774a22.104257 22.104257 0 0 1 20.212243 0l533.778577 272.265376a22.242697 22.242697 0 0 1 0 39.639992L566.16805 586.062758a22.150403 22.150403 0 0 1-10.106121 2.630361z m-484.540076-294.369633l484.540076 247.115438 484.540075-247.115438-484.540075-247.069292z" fill="#ffffff" p-id="2521"></path></svg>