<svg xmlns="http://www.w3.org/2000/svg" viewBox="0 0 24 24"><defs><style>.cls-1{fill:#fff}.cls-2{fill:none;stroke:#fff;stroke-linecap:round;stroke-miterlimit:10}</style></defs><title>任务</title><g id="图层_2" data-name="图层 2"><g id="图层_1-2" data-name="图层 1"><path class="cls-1" d="M20 1a3 3 0 0 1 3 3v13.17a1 1 0 0 1-.29.71l-4.83 4.83a1 1 0 0 1-.71.29H4a3 3 0 0 1-3-3V4a3 3 0 0 1 3-3h16m0-1H4a4 4 0 0 0-4 4v16a4 4 0 0 0 4 4h13.17a2 2 0 0 0 1.41-.59l4.83-4.83a2 2 0 0 0 .59-1.41V4a4 4 0 0 0-4-4z"/><path class="cls-2" d="M5.85 11.23l4 4a1 1 0 0 0 1.41 0l6.83-6.83"/></g></g></svg>