<?xml version="1.0" standalone="no"?><!DOCTYPE svg PUBLIC "-//W3C//DTD SVG 1.1//EN" "http://www.w3.org/Graphics/SVG/1.1/DTD/svg11.dtd"><svg t="1587019430174" class="icon" viewBox="0 0 1024 1024" version="1.1" xmlns="http://www.w3.org/2000/svg" p-id="2000" xmlns:xlink="http://www.w3.org/1999/xlink" width="200" height="200"><defs><style type="text/css"></style></defs><path d="M866.7 296.6H728.3v-92.2c0-25.5-20.6-46.1-46.1-46.1H344c-25.5 0-46.1 20.6-46.1 46.1v92.2H159.5c-34 0-61.5 27.5-61.5 61.5v182.8h138.4v-30.6c0-25.5 20.6-46.1 46.1-46.1s46.1 20.6 46.1 46.1v30.6h384.3v-30.6c0-25.5 20.6-46.1 46.1-46.1s46.1 20.6 46.1 46.1v30.6h123V358c0-33.9-27.5-61.4-61.4-61.4z m-245.6 0H405c-25.3-0.2-45.7-20.8-45.7-46.1 0-25.5 20.6-46.1 46.1-46.1h215.2c25.5 0 46.1 20.6 46.1 46.1 0.1 25.3-20.3 45.8-45.6 46.1zM805.2 617.8c0 25.5-20.6 46.1-46.1 46.1S713 643.3 713 617.8v-7.3H328.6v7.3c0 25.5-20.6 46.1-46.1 46.1s-46.1-20.6-46.1-46.1v-7.3H98v193.4c0 34 27.5 61.5 61.5 61.5h707.2c34 0 61.5-27.5 61.5-61.5V610.5h-123v7.3z" p-id="2001" fill="#ffffff"></path></svg>