<?xml version="1.0" standalone="no"?><!DOCTYPE svg PUBLIC "-//W3C//DTD SVG 1.1//EN" "http://www.w3.org/Graphics/SVG/1.1/DTD/svg11.dtd"><svg t="1575008695839" class="icon" viewBox="0 0 1024 1024" version="1.1" xmlns="http://www.w3.org/2000/svg" p-id="12947" xmlns:xlink="http://www.w3.org/1999/xlink" width="64" height="64"><defs><style type="text/css"></style></defs><path d="M853.504 897.536H170.496c-20.48 0-34.304 13.824-34.304 34.304s13.824 34.304 34.304 34.304h682.496c20.48 0 34.304-16.896 34.304-34.304 0-20.48-13.312-34.304-33.792-34.304zM836.096 573.44H614.4V443.392c61.44-35.328 102.4-101.376 102.4-177.152 0-113.152-91.648-204.8-204.8-204.8S307.2 153.088 307.2 266.24c0 75.776 40.96 141.824 102.4 177.152V573.44H187.904c-27.136 0-51.2 24.064-51.2 51.2v170.496c0 27.136 24.064 51.2 51.2 51.2h648.704c27.136 0 51.2-24.064 51.2-51.2V624.64c-0.512-27.136-24.064-51.2-51.712-51.2z" p-id="12948" fill="#ffffff"></path></svg>