<?xml version="1.0" standalone="no"?><!DOCTYPE svg PUBLIC "-//W3C//DTD SVG 1.1//EN" "http://www.w3.org/Graphics/SVG/1.1/DTD/svg11.dtd"><svg class="icon" width="16px" height="16.00px" viewBox="0 0 1024 1024" version="1.1" xmlns="http://www.w3.org/2000/svg"><path fill="#ffffff" d="M307.2 266.24a204.8 204.8 0 1 0 409.6 0 204.8 204.8 0 0 0-409.6 0zM409.6 448h204.8v125.44H409.6zM836.288 846.528H187.712a52.48 52.48 0 0 1-51.2-51.2V624.64c0-27.328 23.936-51.2 51.2-51.2h648.576c27.264 0 51.2 23.872 51.2 51.2v170.688a52.48 52.48 0 0 1-51.2 51.2z m17.024 119.424H170.688c-20.48 0-34.176-13.632-34.176-34.112 0-20.48 13.696-34.112 34.176-34.112h682.624c20.48 0 34.176 13.632 34.176 34.112a34.176 34.176 0 0 1-34.176 34.112z" /></svg>