<?xml version="1.0" standalone="no"?><!DOCTYPE svg PUBLIC "-//W3C//DTD SVG 1.1//EN" "http://www.w3.org/Graphics/SVG/1.1/DTD/svg11.dtd"><svg t="1587019414529" class="icon" viewBox="0 0 1448 1024" version="1.1" xmlns="http://www.w3.org/2000/svg" p-id="1168" xmlns:xlink="http://www.w3.org/1999/xlink" width="282.8125" height="200"><defs><style type="text/css"></style></defs><path d="M487.144 136.063v46.96c0 26.146 20.986 46.96 46.788 46.96h376.195c25.286 0 46.787-20.986 46.787-46.96v-46.96h94.092c51.776 0 93.748 41.8 93.748 93.92v610.65c0 51.948-41.972 93.92-93.748 93.92H393.052c-24.942 0-48.852-9.805-66.397-27.523-17.546-17.717-27.35-41.627-27.35-66.397v-610.65c0-51.948 41.971-93.92 93.747-93.92h94.092z m188.011 563.518h140.88c77.578 0 140.88-63.129 140.88-140.88 0-77.578-63.13-140.879-140.88-140.879H628.024v-46.96l-140.88 93.92 140.88 93.92v-46.96h187.839c25.974 0 46.96 20.986 46.96 46.96s-20.986 46.96-46.96 46.96h-140.88c-25.974 0-46.96 20.985-46.96 46.96s21.158 46.96 47.132 46.96z m0 0" fill="#ffffff" p-id="1169"></path><path d="M956.914 323.903V182.85c0-25.802-20.985-46.616-46.787-46.788H533.932c-25.286 0-46.788 20.986-46.788 46.788v141.052c-12.385 0-24.426-4.989-33.199-13.762-8.772-8.772-13.76-20.813-13.76-33.198v-140.88c0-25.974 21.329-46.96 47.131-46.96h469.598c12.558 0 24.427 4.817 33.371 13.761 8.773 8.773 13.761 20.814 13.761 33.2v140.879c-0.172 25.974-21.501 46.96-47.132 46.96z m0 0" fill="#ffffff" p-id="1170"></path></svg>