<?xml version="1.0" standalone="no"?><!DOCTYPE svg PUBLIC "-//W3C//DTD SVG 1.1//EN" "http://www.w3.org/Graphics/SVG/1.1/DTD/svg11.dtd"><svg class="icon" width="16px" height="16.00px" viewBox="0 0 1024 1024" version="1.1" xmlns="http://www.w3.org/2000/svg"><path fill="#ffffff" d="M586.976 599.847c46.493-19.183 109.186-50.904 177.545-80.191v235.126s-88.407 94.048-243.823 94.048c-167.371 0-257.776-94.048-257.776-94.048V535.318c52.757 21.494 112.006 39.989 183.702 64.53 44.19 15.724 100.263 21.159 140.352-0.001m342.14-205.6v148.909l31.345 31.355-65.363 68.022-66.17-66.015 45.314-41.2V417.755c-192.266 79.274-253.901 103.913-296.54 123.149-42.64 19.236-73.343 19.139-115.634 3.203s-243.615-89.41-343.58-137.253c-66.704-31.922-70.998-52.16 1.149-79.25 94.155-35.771 249.776-93.055 332.273-124.32 48.83-19.756 74.65-30.538 119.471-8.011 80.036 33.047 262.911 101.669 353.845 139.215 79.159 34.55 25.943 45.912 3.89 59.759z" /></svg>