<?xml version="1.0" standalone="no"?><!DOCTYPE svg PUBLIC "-//W3C//DTD SVG 1.1//EN" "http://www.w3.org/Graphics/SVG/1.1/DTD/svg11.dtd"><svg class="icon" width="16px" height="16.00px" viewBox="0 0 1024 1024" version="1.1" xmlns="http://www.w3.org/2000/svg"><path fill="#ffffff" d="M900.224 960h-761.6C126.336 960 64 952.576 64 885.376v-761.6C64 111.36 111.36 64 123.776 64h776.448c12.352 0 59.776 47.36 59.776 59.776v776.512c0 12.288-47.36 59.712-59.776 59.712z m-21.696-814.528H145.472v733.056h733.056V145.472z m-459.52 415.616a186.048 186.048 0 0 1-94.08-160.96 187.072 187.072 0 0 1 374.144 0c0 68.928-38.08 128.64-93.952 160.96 150.656 39.68 192 173.312 192 236.032h-570.24c0-61.824 41.344-196.096 192.128-236.032z" /></svg>