<?xml version="1.0" standalone="no"?><!DOCTYPE svg PUBLIC "-//W3C//DTD SVG 1.1//EN" "http://www.w3.org/Graphics/SVG/1.1/DTD/svg11.dtd"><svg t="1559110678890" class="icon" style="" viewBox="0 0 1024 1024" version="1.1" xmlns="http://www.w3.org/2000/svg" p-id="16355" xmlns:xlink="http://www.w3.org/1999/xlink" width="128" height="128"><defs><style type="text/css"></style></defs><path d="M465.590438 460.144346H360.691945c0.057344 0.6144 0.08192 1.253375 0.08192 1.884158v285.37633c0 2.662398-0.49152 5.226493-1.409023 7.643131h106.659771a21.43845 21.43845 0 0 1-0.778239-5.718013V463.961815c0-1.302527 0.12288-2.580478 0.344064-3.825661z m69.328851 0H643.151924a21.381106 21.381106 0 0 0-0.08192 1.884158v285.37633c0 2.662398 0.49152 5.226493 1.409023 7.643131H534.46873c0.507904-1.843199 0.77824-3.751934 0.778239-5.718013V463.961815c0-1.302527-0.114688-2.580478-0.32768-3.825661z m-244.02314 0H135.166329v294.911811h157.056924a21.544946 21.544946 0 0 1-1.409023-7.651323V462.028504c0-0.630784 0.024576-1.269759 0.081919-1.884158z m422.09253 0H872.445857v294.911811H711.661576c0.917503-2.42483 1.409023-4.997117 1.409023-7.651323V462.028504c0-0.630784-0.024576-1.269759-0.08192-1.884158z m255.508317 563.854999H56.15454a35.545065 35.545065 0 0 1-25.182192-10.248186A35.266537 35.266537 0 0 1 20.478403 988.749191c0-19.529716 15.949814-35.299305 35.676137-35.299305H967.882596c19.677171 0 35.635177 15.76959 35.635177 35.299305a34.693098 34.693098 0 0 1-10.092537 24.936432 34.963434 34.963434 0 0 1-24.92824 10.313722z m-27.361263-165.642134a35.119082 35.119082 0 0 1-34.979817 34.635753H96.270738a35.119082 35.119082 0 0 1-35.020778-34.635753c0-18.915316 15.908854-34.684906 34.979818-34.684906h809.287162c19.718131 0 35.676137 15.76959 35.676137 34.684906h-0.04096z m42.655717-531.078828L530.11878 6.619132a34.635754 34.635754 0 0 0-40.714214 0L35.813817 327.270191A34.488298 34.488298 0 0 0 23.099841 366.329622a34.144234 34.144234 0 0 0 33.095659 23.937008h907.214267a34.144234 34.144234 0 0 0 33.095659-23.937008 33.587179 33.587179 0 0 0-12.713976-39.051239z" fill="#ffffff" p-id="16356"></path></svg>