<?xml version="1.0" standalone="no"?><!DOCTYPE svg PUBLIC "-//W3C//DTD SVG 1.1//EN" "http://www.w3.org/Graphics/SVG/1.1/DTD/svg11.dtd"><svg t="1575008590105" class="icon" viewBox="0 0 1024 1024" version="1.1" xmlns="http://www.w3.org/2000/svg" p-id="8927" xmlns:xlink="http://www.w3.org/1999/xlink" width="64" height="64"><defs><style type="text/css"></style></defs><path d="M320 0 128 0C57.3 0 0 57.3125 0 128.0125L0 320C0 390.7 57.3 448 128 448L320 448c70.6875 0 128-57.3 128-127.9875l0-192C448 57.3125 390.6875 0 320 0zM896 0 704 0c-70.7 0-128 57.3125-128 128.0125L576 320c0 70.7 57.3 127.9875 128 127.9875l192 0c70.7 0 128-57.3 128-127.9875l0-192C1024 57.3125 966.7 0 896 0zM320 576 128 576C57.3 576 0 633.3 0 704l0 192.0125C0 966.6875 57.3 1024 128 1024L320 1024c70.6875 0 128-57.3125 128-127.9875L448 704C448 633.3 390.6875 576 320 576zM896 576 704 576c-70.7 0-128 57.3-128 127.9875l0 192.0125c0 70.6875 57.3 127.9875 128 127.9875l192 0c70.7 0 128-57.3125 128-127.9875L1024 704C1024 633.3 966.7 576 896 576z" p-id="8928" fill="#ffffff"></path></svg>