<?xml version="1.0" standalone="no"?><!DOCTYPE svg PUBLIC "-//W3C//DTD SVG 1.1//EN" "http://www.w3.org/Graphics/SVG/1.1/DTD/svg11.dtd"><svg t="1575008353317" class="icon" viewBox="0 0 1024 1024" version="1.1" xmlns="http://www.w3.org/2000/svg" p-id="7973" xmlns:xlink="http://www.w3.org/1999/xlink" width="64" height="64"><defs><style type="text/css"></style></defs><path d="M153.1904 987.136h737.28-737.28z m791.3472-67.1744c0-4.9152 0-4.9152 0 0-4.9152-181.8624-117.9648-329.3184-275.2512-388.3008 68.8128-49.152 117.9648-127.7952 117.9648-221.184 0-147.456-122.88-270.336-270.336-270.336-157.2864 0-275.2512 117.9648-275.2512 270.336 0 93.3888 44.2368 172.032 117.9648 221.184C202.3424 590.6432 89.2928 733.184 84.3776 915.0464v9.8304c0 29.4912 24.576 54.0672 58.9824 54.0672h737.28c34.4064 0 58.9824-24.576 63.8976-58.9824z m-353.8944-167.1168l-58.9824 98.304c-4.9152 4.9152-9.8304 9.8304-19.6608 9.8304s-14.7456-4.9152-19.6608-9.8304l-58.9824-98.304a14.9504 14.9504 0 0 1 0-19.6608l58.9824-157.2864c4.9152-9.8304 9.8304-14.7456 19.6608-14.7456s14.7456 4.9152 19.6608 14.7456l58.9824 157.2864c4.9152 9.8304 0 14.7456 0 19.6608z" fill="#ffffff" p-id="7974"></path></svg>