<?xml version="1.0" standalone="no"?><!DOCTYPE svg PUBLIC "-//W3C//DTD SVG 1.1//EN" "http://www.w3.org/Graphics/SVG/1.1/DTD/svg11.dtd"><svg class="icon" width="64px" height="48.01px" viewBox="0 0 1365 1024" version="1.1" xmlns="http://www.w3.org/2000/svg"><path fill="#ffffff" d="M0.910222 328.533333C205.710222 250.311111 1022.862222 73.955556 1364.878222 0.341333c-326.428444 176.071111-781.255111 331.832889-987.022222 460.231111-19.911111-7.452444-52.849778-18.432-109.681778-37.205333-69.802667-22.755556-194.958222-64-267.207111-94.833778H0.910222z m461.425778 584.817778c-10.524444 5.461333-21.617778 11.150222-33.905778 17.635556-5.973333-69.518222-9.443556-181.418667-10.979555-284.501334a10288.526222 10288.526222 0 0 0 131.413333 219.591111c-30.435556 18.375111-54.784 31.004444-86.528 47.217778z m298.325333 110.535111c-59.562667-55.694222-217.884444-326.883556-279.893333-433.493333-17.521778-30.094222-30.208-51.655111-39.594667-67.470222C670.435556 380.928 1004.088889 192.284444 1364.935111 0.341333c-92.16 233.130667-502.044444 915.512889-604.273778 1023.544889z"  /></svg>