<?xml version="1.0" standalone="no"?><!DOCTYPE svg PUBLIC "-//W3C//DTD SVG 1.1//EN" "http://www.w3.org/Graphics/SVG/1.1/DTD/svg11.dtd"><svg t="1575008770406" class="icon" viewBox="0 0 1024 1024" version="1.1" xmlns="http://www.w3.org/2000/svg" p-id="13862" xmlns:xlink="http://www.w3.org/1999/xlink" width="64" height="64"><defs><style type="text/css"></style></defs><path d="M894.656 127.488c21.312 21.312 32.256 47.68 32.832 79.168v616c-0.576 31.488-11.52 57.856-32.832 79.168s-47.68 32.256-79.168 32.832H199.488c-31.488-0.576-57.92-11.52-79.168-32.832-21.312-21.312-32.256-47.68-32.832-79.168V206.656c0.576-31.488 11.52-57.856 32.832-79.168s47.68-32.256 79.168-32.832H266.88v61.248c0 17.472 5.12 31.232 15.296 41.152 10.176 9.92 23.744 14.848 40.704 14.848h11.392c16.896 0 30.336-4.928 40.256-14.848 9.92-9.92 15.168-23.616 15.744-41.152v-61.248h240.64v61.248c0 17.472 5.12 31.232 15.296 41.152 10.176 9.92 23.744 14.848 40.704 14.848h5.248c16.896 0 30.464-4.928 40.704-14.848 10.176-9.92 15.296-23.616 15.296-41.152v-61.248h67.392c31.424 0.576 57.792 11.52 79.104 32.832z m-90.56 689.92V397.376H204.736v419.968h605.504-6.144zM328.128 570.624h118.144V453.376H328.128v117.248z m0 179.392h118.144V631.872H328.128v118.144z m240.576-179.392h118.144V453.376H568.704v117.248z m0 179.392h118.144V631.872H568.704v118.144z" p-id="13863" fill="#ffffff"></path></svg>