<?xml version="1.0" standalone="no"?><!DOCTYPE svg PUBLIC "-//W3C//DTD SVG 1.1//EN" "http://www.w3.org/Graphics/SVG/1.1/DTD/svg11.dtd"><svg t="1575008820479" class="icon" viewBox="0 0 1024 1024" version="1.1" xmlns="http://www.w3.org/2000/svg" p-id="14651" xmlns:xlink="http://www.w3.org/1999/xlink" width="64" height="64"><defs><style type="text/css"></style></defs><path d="M1008.211039 6.290133a35.619706 35.619706 0 0 1 15.359627 36.57054l-146.282161 877.692971A36.058553 36.058553 0 0 1 841.303093 950.834051a39.057337 39.057337 0 0 1-13.677382-2.925643l-258.846286-105.615721-138.236642 168.51705A33.571756 33.571756 0 0 1 402.456608 1023.975132a31.304383 31.304383 0 0 1-12.580266-2.267373 35.619706 35.619706 0 0 1-17.407578-13.457959 35.692847 35.692847 0 0 1-6.582697-20.845208v-199.382587L859.588363 182.852702 248.714056 711.443294 23.146962 618.773544A33.498615 33.498615 0 0 1 0.180663 587.322879a33.86432 33.86432 0 0 1 18.28527-33.644897l950.834051-548.631247A35.107719 35.107719 0 0 1 987.585254 0c7.606672 0 14.481934 2.121091 20.479503 6.290133" p-id="14652" fill="#ffffff"></path></svg>