<?xml version="1.0" standalone="no"?><!DOCTYPE svg PUBLIC "-//W3C//DTD SVG 1.1//EN" "http://www.w3.org/Graphics/SVG/1.1/DTD/svg11.dtd"><svg t="1574756156252" class="icon" viewBox="0 0 1024 1024" version="1.1" xmlns="http://www.w3.org/2000/svg" p-id="7059" xmlns:xlink="http://www.w3.org/1999/xlink" width="200" height="200"><defs><style type="text/css"></style></defs><path d="M753.152 328.704H429.056c-25.6 0-46.08-20.48-46.08-46.08s20.48-46.08 46.08-46.08h324.096c25.6 0 46.08 20.48 46.08 46.08s-20.992 46.08-46.08 46.08m0 231.424H429.056c-25.6 0-46.08-20.48-46.08-46.08s20.48-46.08 46.08-46.08h324.096c25.6 0 46.08 20.48 46.08 46.08s-20.992 46.08-46.08 46.08m0 231.424H429.056c-25.6 0-46.08-20.48-46.08-46.08s20.48-46.08 46.08-46.08h324.096c25.6 0 46.08 20.48 46.08 46.08s-20.992 46.08-46.08 46.08M277.504 328.704c-25.6 0-46.08-20.48-46.08-46.08s20.48-46.08 46.08-46.08 46.08 20.48 46.08 46.08c0.512 25.6-20.48 46.08-46.08 46.08m0 231.424a46.1824 46.1824 0 0 1 0-92.16c25.6 0 46.08 20.48 46.08 46.08 0.512 25.6-20.48 46.08-46.08 46.08m0 231.424a46.1824 46.1824 0 0 1 0-92.16c25.6 0 46.08 20.48 46.08 46.08 0.512 25.6-20.48 46.08-46.08 46.08M925.184 4.608H92.16C41.472 5.12 0 46.08 0 96.768v833.536c0 50.688 41.472 92.16 92.16 92.16h834.048c50.688 0 92.16-41.472 92.16-92.16V96.768c-0.512-50.688-41.984-92.16-93.184-92.16" fill="#8272EC" p-id="7060"></path></svg>