<?xml version="1.0" standalone="no"?><!DOCTYPE svg PUBLIC "-//W3C//DTD SVG 1.1//EN" "http://www.w3.org/Graphics/SVG/1.1/DTD/svg11.dtd"><svg class="icon" width="16px" height="16.00px" viewBox="0 0 1024 1024" version="1.1" xmlns="http://www.w3.org/2000/svg"><path fill="#ffffff" d="M780.8 706.112V138.688C780.8 97.472 747.392 64 706.112 64H138.688C97.408 64 64 97.408 64 138.688v567.488c0 41.216 33.408 74.752 74.688 74.752h567.488a74.752 74.752 0 0 0 74.624-74.88zM601.6 295.488c0 20.608-16.64 37.312-37.312 37.312H280.512a37.312 37.312 0 0 1-37.312-37.312v-14.912c0-20.608 16.64-37.248 37.312-37.248h283.712c20.544 0 37.248 16.64 37.248 37.248v14.912H601.6zM885.312 198.4H870.4v560a112 112 0 0 1-112 112H243.2v14.912c0 41.216 33.408 74.688 74.688 74.688h492.8A149.312 149.312 0 0 0 960 810.688v-537.6c0-41.28-33.408-74.688-74.688-74.688z" /></svg>