<?xml version="1.0" standalone="no"?><!DOCTYPE svg PUBLIC "-//W3C//DTD SVG 1.1//EN" "http://www.w3.org/Graphics/SVG/1.1/DTD/svg11.dtd"><svg t="1577342280071" class="icon" viewBox="0 0 1024 1024" version="1.1" xmlns="http://www.w3.org/2000/svg" p-id="36733" xmlns:xlink="http://www.w3.org/1999/xlink" width="64" height="64"><defs><style type="text/css"></style></defs><path d="M364.832 248.736a152.736 152.736 0 1 0 305.472 0 152.736 152.736 0 0 0-305.472 0z" p-id="36734" fill="#ffffff"></path><path d="M412.096 429.248h201.664a115.712 115.712 0 0 1 114.784 130.4l-32.64 254.56a115.712 115.712 0 0 1-114.752 100.992h-136.416a115.712 115.712 0 0 1-114.752-100.992l-32.64-254.56a115.712 115.712 0 0 1 114.752-130.4z m23.424 0l77.536 206.08 77.568-206.08H435.52z" p-id="36735" fill="#ffffff"></path><path d="M54.72 376a122.656 122.656 0 1 0 245.312 0 122.656 122.656 0 0 0-245.28 0z" p-id="36736" fill="#ffffff"></path><path d="M260.832 521.824c0.064 4.608 0.384 9.28 0.992 14.016l39.68 304.224c1.312 10.24 4 20.224 8 29.76a92.544 92.544 0 0 1-76.736 40.736h-113.6a92.576 92.576 0 0 1-91.84-80.608l-26.496-203.648a92.576 92.576 0 0 1 91.808-104.512H260.864z m-147.776 0l63.008 164.832 63.008-164.864H113.056z" p-id="36737" fill="#ffffff"></path><path d="M725.824 380.64a122.656 122.656 0 1 0 245.312 0 122.656 122.656 0 0 0-245.312 0z" p-id="36738" fill="#ffffff"></path><path d="M760.384 526.432a116.896 116.896 0 0 1-0.96 14.048l-39.68 304.224c-1.312 10.24-4 20.224-8 29.76A92.544 92.544 0 0 0 788.48 915.2h113.6a92.576 92.576 0 0 0 91.808-80.64l26.496-203.616a92.576 92.576 0 0 0-91.776-104.512H760.384z m147.808 0l-63.008 164.864-63.008-164.864h126.016z" p-id="36739" fill="#ffffff"></path></svg>