<?xml version="1.0" standalone="no"?><!DOCTYPE svg PUBLIC "-//W3C//DTD SVG 1.1//EN" "http://www.w3.org/Graphics/SVG/1.1/DTD/svg11.dtd"><svg class="icon" width="16px" height="16.00px" viewBox="0 0 1024 1024" version="1.1" xmlns="http://www.w3.org/2000/svg"><path fill="#ffffff" d="M929.28 760.32H128a64 64 0 0 0 0 128h801.28a64 64 0 0 0 0-128zM85.12 639.488a63.552 63.552 0 0 0 43.008 16.384c17.92 0 35.328-7.68 47.616-20.992L332.8 460.288l240.64 222.72 292.864-325.12v100.864a64 64 0 0 0 128 0v-268.8a46.4 46.4 0 0 0-2.048-13.824 48.96 48.96 0 0 0-8.704-19.968c-2.048-3.072-4.096-6.656-7.168-9.216l-1.024-1.536-0.512-0.512a65.92 65.92 0 0 0-9.216-6.656 65.408 65.408 0 0 0-10.752-5.632 99.2 99.2 0 0 0-11.264-3.072C940.608 129.024 936.96 128 932.416 128h-240.64a64 64 0 0 0 0 128h97.28L567.36 502.272l-243.2-223.744-243.712 270.848c-11.264 12.8-16.896 29.184-16.384 46.08 1.024 16.896 8.704 32.768 20.992 44.032z" /></svg>