<?xml version="1.0" standalone="no"?><!DOCTYPE svg PUBLIC "-//W3C//DTD SVG 1.1//EN" "http://www.w3.org/Graphics/SVG/1.1/DTD/svg11.dtd"><svg class="icon" width="16px" height="16.00px" viewBox="0 0 1024 1024" version="1.1" xmlns="http://www.w3.org/2000/svg"><path fill="#ffffff" d="M400.896 288.768H614.4c66.048 0 116.736-143.36 116.736-143.36 0-43.008-4.096-75.264-77.824-77.824-73.216-2.56-91.136 51.2-143.872 51.2-54.272 0-80.896-41.984-147.456-51.2-66.56-9.216-77.824 34.816-77.824 77.824 0 0 50.688 143.36 116.736 143.36z m225.28 44.544h-225.28c-249.344 0-310.784 489.984-310.784 489.984 0 64.512 52.224 129.024 116.736 129.024h613.888c64.512 0 116.736-64.512 116.736-129.024-0.512 0-61.952-489.984-311.296-489.984z m25.6 376.832c14.848 0 27.136 12.288 27.136 27.136s-12.288 27.136-27.136 27.136h-110.592v71.68c0 14.848-12.288 27.136-27.136 27.136s-27.136-12.288-27.136-27.136v-71.68H375.808c-14.848 0-27.136-12.288-27.136-27.136s12.288-27.136 27.136-27.136h111.104V675.84H375.808c-14.848 0-27.136-12.288-27.136-27.136s12.288-27.136 27.136-27.136h75.264L373.76 484.352c-7.68-12.8-3.072-29.696 9.728-37.376s29.696-3.072 37.376 9.728l92.672 163.84h4.608l92.672-163.84c7.68-12.8 24.064-17.408 37.376-9.728 12.8 7.68 17.408 24.064 9.728 37.376l-76.8 136.704h70.656c14.848 0 27.136 12.288 27.136 27.136s-12.288 27.136-27.136 27.136h-110.592v34.304h110.592z" /></svg>