<?xml version="1.0" standalone="no"?><!DOCTYPE svg PUBLIC "-//W3C//DTD SVG 1.1//EN" "http://www.w3.org/Graphics/SVG/1.1/DTD/svg11.dtd"><svg class="icon" width="16px" height="16.00px" viewBox="0 0 1024 1024" version="1.1" xmlns="http://www.w3.org/2000/svg"><path fill="#ffffff" d="M198.016 64h637.056c21.184 0 37.632 16.512 37.632 35.328 2.368 21.056-14.08 35.2-35.2 35.2H198.016c-21.248 0-37.568-16.448-37.568-35.2 0-18.816 16.32-35.328 37.568-35.328zM896 897.408c0 28.224-26.752 62.592-51.2 62.592H179.2c-24.448 0-51.2-34.368-51.2-62.592V576h68.16v305.984h634.048V576H896v321.408z m-41.984-396.096c-61.248 0-112.896-49.152-112.896-108.032 0 61.184-49.472 108.032-112.896 108.032-61.184 0-112.768-49.152-112.768-108.032 0 61.184-49.472 108.032-112.896 108.032-61.12 0-112.832-49.152-112.832-108.032 0 61.184-49.408 108.032-112.96 108.032C115.648 501.312 64 452.16 64 393.28L141.632 193.28h738.24l79.808 199.936c4.864 61.184-44.672 108.032-105.664 108.032z" /></svg>