<?xml version="1.0" standalone="no"?><!DOCTYPE svg PUBLIC "-//W3C//DTD SVG 1.1//EN" "http://www.w3.org/Graphics/SVG/1.1/DTD/svg11.dtd"><svg t="1574848189271" class="icon" viewBox="0 0 1024 1024" version="1.1" xmlns="http://www.w3.org/2000/svg" p-id="9502" xmlns:xlink="http://www.w3.org/1999/xlink" width="200" height="200"><defs><style type="text/css"></style></defs><path d="M512 1024a512 512 0 0 1-512-512 512 512 0 0 1 512-512 512 512 0 0 1 512 512 512 512 0 0 1-512 512z m0-64A448 448 0 1 0 512 64a448 448 0 0 0 0 896z" p-id="9503"></path><path d="M853.76 892.416h-52.864a290.048 290.048 0 0 0-577.728 0H170.24a342.912 342.912 0 0 1 233.28-298.88 184.576 184.576 0 1 1 216.96 0 342.912 342.912 0 0 1 233.28 298.88z m-355.264-316.16a348.8 348.8 0 0 1 27.776 0 132.352 132.352 0 1 0-27.84 0z" p-id="9504"></path></svg>