<?xml version="1.0" standalone="no"?><!DOCTYPE svg PUBLIC "-//W3C//DTD SVG 1.1//EN" "http://www.w3.org/Graphics/SVG/1.1/DTD/svg11.dtd"><svg t="1574848175008" class="icon" viewBox="0 0 1260 1024" version="1.1" xmlns="http://www.w3.org/2000/svg" p-id="9387" xmlns:xlink="http://www.w3.org/1999/xlink" width="246.09375" height="200"><defs><style type="text/css"></style></defs><path d="M1154.678154 0.472615H104.920615C47.025231 0.472615 0 49.467077 0 109.961846v804.076308c0 60.494769 47.025231 109.646769 104.920615 109.646769H1154.756923c57.974154 0 104.920615-49.152 104.920615-109.725538V110.040615c0-60.573538-46.946462-109.568-104.920615-109.568z m39.384615 895.291077c0 30.168615-23.630769 54.823385-52.539077 54.823385H120.438154c-28.987077 0-52.460308-24.654769-52.460308-54.823385V128.315077c0-30.168615 23.630769-54.744615 52.460308-54.744615h1021.085538c29.065846 0 52.539077 24.576 52.539077 54.744615v767.448615z" p-id="9388"></path><path d="M419.84 585.964308c96.649846 0 175.025231-81.604923 175.025231-182.429539 0-100.824615-78.454154-182.350769-175.025231-182.350769S244.972308 302.788923 244.972308 403.534769c0 100.824615 78.296615 182.429538 174.867692 182.429539z m0-291.84c57.974154 0 104.999385 48.994462 104.999385 109.48923 0 60.337231-47.025231 109.331692-104.999385 109.331693s-104.920615-48.994462-104.920615-109.489231c0-60.416 46.946462-109.489231 104.920615-109.489231v0.157539z" p-id="9389"></path><path d="M419.84 585.964308c115.869538 0 209.998769 97.910154 209.998769 218.820923h69.947077c0-161.161846-125.321846-291.761231-279.945846-291.761231-154.545231 0-279.867077 130.599385-279.867077 291.761231h70.025846c0-120.832 93.971692-218.820923 209.841231-218.820923z" p-id="9390"></path><path d="M629.838769 804.785231c0 20.243692 15.596308 36.548923 34.894769 36.548923a35.761231 35.761231 0 0 0 35.052308-36.548923 35.761231 35.761231 0 0 0-35.052308-36.470154 35.761231 35.761231 0 0 0-34.894769 36.470154z m-489.865846 0c0 20.243692 15.675077 36.548923 34.973539 36.548923a35.761231 35.761231 0 0 0 35.052307-36.548923 35.761231 35.761231 0 0 0-35.052307-36.470154 35.761231 35.761231 0 0 0-34.973539 36.470154z m699.785846-583.68h279.867077v73.019077h-279.867077v-72.940308z m0 437.799384h279.867077v72.940308h-279.867077v-72.940308z m0-218.899692h279.867077v73.019077h-279.867077v-73.019077z" p-id="9391"></path></svg>