<?xml version="1.0" standalone="no"?><!DOCTYPE svg PUBLIC "-//W3C//DTD SVG 1.1//EN" "http://www.w3.org/Graphics/SVG/1.1/DTD/svg11.dtd"><svg t="1574848163325" class="icon" viewBox="0 0 1024 1024" version="1.1" xmlns="http://www.w3.org/2000/svg" p-id="9273" xmlns:xlink="http://www.w3.org/1999/xlink" width="200" height="200"><defs><style type="text/css"></style></defs><path d="M512.064 296.896A148.608 148.608 0 0 1 363.52 148.8 149.056 149.056 0 0 1 512.064 0.128a148.608 148.608 0 0 1 148.608 148.16 149.12 149.12 0 0 1-148.608 148.608z m0-241.92a94.08 94.08 0 0 0-93.76 93.824c0.192 51.648 42.112 93.44 93.76 93.312a94.08 94.08 0 0 0 93.824-93.76A93.632 93.632 0 0 0 512 54.976h0.064z m0 917.504a149.12 149.12 0 0 1-148.608-148.608A149.12 149.12 0 0 1 512 675.264a149.12 149.12 0 0 1 148.608 148.608 149.12 149.12 0 0 1-148.608 148.608z m0-242.368a94.08 94.08 0 0 0-93.76 93.76c0 51.584 42.24 93.76 93.76 93.76a94.08 94.08 0 0 0 93.824-93.76 94.08 94.08 0 0 0-93.824-93.76zM149.12 972.48a149.12 149.12 0 0 1-148.608-148.608 149.12 149.12 0 0 1 148.608-148.608 149.12 149.12 0 0 1 148.608 148.608 149.12 149.12 0 0 1-148.608 148.608z m0-242.368a94.08 94.08 0 0 0-93.76 93.76c0 51.584 42.24 93.76 93.76 93.76a94.08 94.08 0 0 0 93.76-93.76 94.08 94.08 0 0 0-93.76-93.76z m725.568 242.368a149.12 149.12 0 0 1-148.608-148.608 149.12 149.12 0 0 1 148.608-148.608 149.056 149.056 0 0 1 148.544 148.608 149.12 149.12 0 0 1-148.48 148.608z m0-242.368a94.08 94.08 0 0 0-93.824 93.76c0 51.584 42.24 93.76 93.824 93.76a94.08 94.08 0 0 0 93.76-93.76 94.08 94.08 0 0 0-93.76-93.76z" p-id="9274"></path><path d="M874.624 730.112a27.136 27.136 0 0 1-27.392-27.456V477.44H176.512v225.28c0 15.36-12.096 27.456-27.456 27.456a27.136 27.136 0 0 1-27.392-27.456V449.92c0-15.36 12.032-27.392 27.392-27.392h725.568c15.36 0 27.392 12.096 27.392 27.456v252.8c0 15.36-12.096 27.392-27.392 27.392z" p-id="9275"></path><path d="M512.064 687.936a27.136 27.136 0 0 1-27.328-27.456V290.816c0-15.36 11.968-27.456 27.328-27.456s27.456 12.096 27.456 27.456v369.664c0 15.36-12.096 27.456-27.456 27.456z" p-id="9276"></path></svg>