<?xml version="1.0" standalone="no"?><!DOCTYPE svg PUBLIC "-//W3C//DTD SVG 1.1//EN" "http://www.w3.org/Graphics/SVG/1.1/DTD/svg11.dtd"><svg t="1514886120243" class="icon" style="" viewBox="0 0 1025 1024" version="1.1" xmlns="http://www.w3.org/2000/svg" p-id="17543" xmlns:xlink="http://www.w3.org/1999/xlink" width="48.046875" height="48"><defs><style type="text/css"></style></defs><path d="M808.545456 95.078923a512.475395 512.475395 0 0 1-591.390901 835.743733A507.721448 507.721448 0 0 1 22.242763 658.896936a536.245125 536.245125 0 0 1-18.064995-95.078923V541.949861c0-7.606314 0 0 6.655524 0s0 0 0-4.753946L0.374611 531.491179A511.524605 511.524605 0 0 1 312.233478 40.883937h4.753946c-1.901578 0 0 0 0 0v5.704735H328.396895a33.277623 33.277623 0 0 0 0-7.606314s-9.507892 0.950789-12.36026 0A498.213556 498.213556 0 0 1 431.082132 6.655525a518.18013 518.18013 0 0 1 95.078923-5.704736V0s8.557103 0 10.458681 5.704735 0 12.36026 8.557103 10.458682 0 0 0-8.557103 0 0-6.655524 0 0-4.753946 0-7.606314a509.623027 509.623027 0 0 1 161.634169 37.08078 5.704735 5.704735 0 0 1-6.655525 0A13.311049 13.311049 0 0 1 694.450748 47.539461c0 5.704735 8.557103 8.557103 9.507893 12.36026s-6.655525 0-12.36026 0a13.311049 13.311049 0 0 1 0 9.507893h5.704735a24.72052 24.72052 0 0 1 0 9.507892c5.704735 5.704735 7.606314 0 11.409471 0a464.935933 464.935933 0 0 0-285.236769-29.474466 11.409471 11.409471 0 0 0 0-6.655525 12.36026 12.36026 0 0 0 3.803157 2.852368H418.721872s-5.704735 6.655525-6.655525 10.458682h-13.311049A467.788301 467.788301 0 0 0 285.61138 101.734448l-19.015785 12.36026v-5.704736c0-5.704735 0 0 5.704736 0s5.704735 0 0 0A44.687094 44.687094 0 0 1 285.61138 95.078923L279.906644 88.423398c-5.704735-6.655525 0 0 0 0a9.507892 9.507892 0 0 0-9.507892 0V95.078923c0 6.655525 0 0 0 0s-6.655525 0 0 0h-14.261838a12.36026 12.36026 0 0 1-7.606314 0 28.523677 28.523677 0 0 1 6.655524 13.311049h-4.753946a7.606314 7.606314 0 0 0 0-6.655524h-4.753946c-4.753946 0 0 0 0 0v4.753946c0 4.753946 0 0 0 0v5.704735l-19.015784 14.261839a10.458682 10.458682 0 0 1-13.31105 0c0 9.507892-15.212628 0-13.311049 10.458681h10.458682L190.532457 175.896007a519.130919 519.130919 0 0 0-56.096565 65.604457 467.788301 467.788301 0 0 0-85.57103 256.713092l-8.557103 6.655525a475.394615 475.394615 0 0 0 95.078923 290.941504 462.083565 462.083565 0 0 0 101.734447 95.078923 367.955432 367.955432 0 0 0 56.096565 34.228412c0 5.704735 0 6.655525-6.655525 11.409471s6.655525 0 9.507892 0 0-4.753946 0-7.606314a466.837512 466.837512 0 0 0 310.908078 39.933148l-4.753946 6.655524c-4.753946 6.655525 4.753946 0 7.606314 0s0 0 0-4.753946a466.837512 466.837512 0 0 0 173.04364-840.497679L761.005994 116.947075v-4.753946h-6.655524L722.974425 95.078923h-8.557103c-8.557103 0 0 0 0 0h-4.753946V88.423398c0-4.753946 6.655525 0 9.507892 0s0 4.753946-4.753946 0a11.409471 11.409471 0 0 1 0-10.458681S712.515744 57.998143 713.466533 55.145775s10.458682 0 7.606314 0h-5.704736 6.655525l21.868152 10.458682 4.753946 4.753946c4.753946 4.753946 6.655525 0 5.704736 0A701.682451 701.682451 0 0 1 808.545456 95.078923zM27.947499 521.983287c0-12.36026 0-8.557103-14.261839-17.114206s0 0-6.655524 0 23.769731 0 6.655524 12.36026c0 8.557103 7.606314 0 13.311049 0z m0 0c-4.753946 0 0 10.458682 0 9.507892v-6.655524z m-7.606314 20.917363s-9.507892 0-13.311049 5.704735 8.557103 7.606314 14.261838 0a47.539461 47.539461 0 0 1 0-9.507892z m-9.507893-4.753946H19.390396c8.557103 0 0 0 0-4.753946zM15.587239 570.473538s0 13.311049-6.655525 14.261838 5.704735 0 8.557103 0S25.095131 570.473538 22.242763 570.473538H15.587239z m107.439183 222.484679h11.40947c2.852368 0 0 0-6.655524-8.557103s-4.753946 5.704735 0 8.557103z m14.261838 6.655525c0 7.606314-17.114206 5.704735-12.36026 14.261838 4.753946-6.655525 10.458682 0 12.36026 0a13.311049 13.311049 0 0 0 0-17.114206z m10.458682 15.212628c-4.753946 0-6.655525 13.311049-15.212628 12.36026 5.704735 0 10.458682 0 15.212628 6.655524s0-12.36026 0-19.015784z m12.360259 21.868152c0 7.606314-6.655525-7.606314-9.507892 0s10.458682 9.507892 13.311049 0zM45.061705 499.164345z m-23.769731-9.507892s0 15.212628 6.655525 12.36026 0-8.557103 0-13.311049z m0 41.834726c7.606314 12.36026-6.655525-4.753946-9.507892 8.557103s8.557103 0 12.36026 0 0-10.458682 0-7.606314zM769.563097 74.16156S761.005994 75.112349 761.005994 71.309192s0 0-6.655524 5.704736 0 0 0 6.655524S761.005994 82.718663 761.005994 85.571031s0 0 6.655525 0h-4.753946z m104.586816 84.620241h4.753946c4.753946 0 0-5.704735 0-6.655524s0-5.704735 0 0v5.704735z m0 4.753946c-7.606314 0-5.704735 4.753946 0 0z m-190.157846-133.110492h7.606314zM843.724657 142.618384s-6.655525-5.704735-9.507892 0 0 0 4.753946 0 4.753946 0 0 0z m64.653668 47.539462h-6.655525 6.655525zM737.236264 69.407614h-15.212628c-4.753946 0 5.704735 0 0 4.753946h10.458682V68.456825z m132.159703 95.078923v8.557103c0 1.901578 0 0 4.753946 0s0-6.655525 0-9.507893zM751.498102 85.571031a7.606314 7.606314 0 0 0 0 9.507892V87.472609zM681.139699 37.08078s6.655525 0 0 0z m10.458682 15.212628h-5.704736a6.655525 6.655525 0 0 0 0 5.704735s8.557103 0 8.557103-5.704735z m28.523677 28.523676v9.507893c0 3.803157 5.704735-7.606314 7.606313 0s0 0 0-4.753946-8.557103 0-10.458681 0z m129.307335 95.078923s0-4.753946 0 0z m36.12999 24.72052h0z m25.67131 27.572888h0zM562.291045 39.933148v5.704735zM475.769226 33.277623a5.704735 5.704735 0 0 1 0-6.655525v2.852368c0 3.803157 0 0 0 0z m0 0V38.031569c0 4.753946 0 0 4.753946 0s0 0 0-4.753946z m-55.145776 0v6.655525c0 6.655525 0 0 0 0s0-5.704735 0 0z m-15.212627 16.163417s0-7.606314-6.655525-5.704735l6.655525 5.704735z m0 0v4.753946c0 4.753946 5.704735 0 0-4.753946zM314.135057 51.342618v6.655525a5.704735 5.704735 0 0 0 0-6.655525z m5.704735 15.212628h0z m-7.606314 7.606314S304.627164 77.013928 304.627164 79.866295h6.655525zM257.087703 95.078923h-2.852368z m-11.409471 19.015785a5.704735 5.704735 0 0 0 0 4.753946h4.753946z m-7.606314 0h0z m0 21.868152s0-6.655525-8.557103-5.704736c0-4.753946 0 0 5.704736 0z m687.420613 82.718663h-6.655525 5.704736z m-142.618384-115.996286a9.507892 9.507892 0 0 0 0-5.704736h5.704735c5.704735 0-7.606314-1.901578-8.557103-7.606313s0 0 0 5.704735-6.655525 4.753946 0 0 0 0-7.606314 0h-10.458681C757.202838 95.078923 761.005994 95.078923 761.005994 101.734448s0 0-4.753946 0A6.655525 6.655525 0 0 1 761.005994 114.094708a10.458682 10.458682 0 0 0 8.557103 0s0 4.753946 0 0v4.753946a9.507892 9.507892 0 0 1 0-6.655525h-4.753946s0 4.753946 0 0 0 0 6.655525 0z m36.12999 50.391829s0-4.753946 4.753947-5.704735-4.753946-10.458682-9.507893-6.655525 0 4.753946 0 0 0 5.704735 4.753946 0z m95.078923 59.899721h6.655525c6.655525 0 0 0 0 0zM389.247406 31.376045s4.753946 0 0 0 4.753946 0 0 0h-6.655525z m7.606314 6.655524h-5.704736c-5.704735 0 0 0 0 5.704736s0 0 6.655525 0-4.753946 0 0 0zM262.792438 88.423398c0 5.704735-6.655525 0-6.655524 9.507893s0 0 6.655524 0 0 0 0-8.557103zM246.629021 95.078923s4.753946 0 0 0 0 0 0 4.753946z m0 27.572888z m0 0z m0 0z m0 0z m0 0z m0 0z m0 0z" p-id="17544" fill="#8a8a8a"></path><path d="M808.545456 95.078923a512.475395 512.475395 0 0 1-591.390901 835.743733A507.721448 507.721448 0 0 1 22.242763 658.896936a536.245125 536.245125 0 0 1-18.064995-95.078923V541.949861c0-7.606314 0 0 6.655524 0s0 0 0-4.753946L0.374611 531.491179A511.524605 511.524605 0 0 1 312.233478 40.883937h4.753946c-1.901578 0 0 0 0 0v5.704735H328.396895a33.277623 33.277623 0 0 0 0-7.606314s-9.507892 0.950789-12.36026 0A498.213556 498.213556 0 0 1 431.082132 6.655525a518.18013 518.18013 0 0 1 95.078923-5.704736V0s8.557103 0 10.458681 5.704735 0 12.36026 8.557103 10.458682 0 0 0-8.557103 0 0-6.655524 0 0-4.753946 0-7.606314a509.623027 509.623027 0 0 1 161.634169 37.08078 5.704735 5.704735 0 0 1-6.655525 0A13.311049 13.311049 0 0 1 694.450748 47.539461c0 5.704735 8.557103 8.557103 9.507893 12.36026s-6.655525 0-12.36026 0a13.311049 13.311049 0 0 1 0 9.507893h5.704735a24.72052 24.72052 0 0 1 0 9.507892c5.704735 5.704735 7.606314 0 11.409471 0a464.935933 464.935933 0 0 0-285.236769-29.474466 11.409471 11.409471 0 0 0 0-6.655525 12.36026 12.36026 0 0 0 3.803157 2.852368H418.721872s-5.704735 6.655525-6.655525 10.458682h-13.311049A467.788301 467.788301 0 0 0 285.61138 101.734448l-19.015785 12.36026v-5.704736c0-5.704735 0 0 5.704736 0s5.704735 0 0 0A44.687094 44.687094 0 0 1 285.61138 95.078923L279.906644 88.423398c-5.704735-6.655525 0 0 0 0a9.507892 9.507892 0 0 0-9.507892 0V95.078923c0 6.655525 0 0 0 0s-6.655525 0 0 0h-14.261838a12.36026 12.36026 0 0 1-7.606314 0 28.523677 28.523677 0 0 1 6.655524 13.311049h-4.753946a7.606314 7.606314 0 0 0 0-6.655524h-4.753946c-4.753946 0 0 0 0 0v4.753946c0 4.753946 0 0 0 0v5.704735l-19.015784 14.261839a10.458682 10.458682 0 0 1-13.31105 0c0 9.507892-15.212628 0-13.311049 10.458681h10.458682L190.532457 175.896007a519.130919 519.130919 0 0 0-56.096565 65.604457 467.788301 467.788301 0 0 0-85.57103 256.713092l-8.557103 6.655525a475.394615 475.394615 0 0 0 95.078923 290.941504 462.083565 462.083565 0 0 0 101.734447 95.078923 367.955432 367.955432 0 0 0 56.096565 34.228412c0 5.704735 0 6.655525-6.655525 11.409471s6.655525 0 9.507892 0 0-4.753946 0-7.606314a466.837512 466.837512 0 0 0 310.908078 39.933148l-4.753946 6.655524c-4.753946 6.655525 4.753946 0 7.606314 0s0 0 0-4.753946a466.837512 466.837512 0 0 0 173.04364-840.497679L761.005994 116.947075v-4.753946h-6.655524L722.974425 95.078923h-8.557103c-8.557103 0 0 0 0 0h-4.753946V88.423398c0-4.753946 6.655525 0 9.507892 0s0 4.753946-4.753946 0a11.409471 11.409471 0 0 1 0-10.458681S712.515744 57.998143 713.466533 55.145775s10.458682 0 7.606314 0h-5.704736 6.655525l21.868152 10.458682 4.753946 4.753946c4.753946 4.753946 6.655525 0 5.704736 0A701.682451 701.682451 0 0 1 808.545456 95.078923zM27.947499 521.983287c-6.655525 0-10.458682 6.655525-13.31105 0 17.114206-8.557103 0 0-6.655524-12.36026s4.753946 0 6.655524 0 18.064995 5.704735 14.261839 17.114206z m0 0v6.655525c0 1.901578-7.606314-6.655525 0-9.507893z m-7.606314 20.917363a47.539461 47.539461 0 0 0 0 9.507892H6.079346c-3.803157 0 9.507892 0 13.31105-5.704735z m-9.507893-4.753946v4.753946c0 4.753946-5.704735 0-8.557103 0zM15.587239 570.473538s0 7.606314 6.655524 0-7.606314 8.557103 0 10.458681-5.704735 0-8.557103 0S13.68566 570.473538 15.587239 570.473538z m107.439183 222.484679v-8.557103c0-2.852368 0 6.655525 6.655524 8.557103s-7.606314 0-11.409471 0z m14.261838 6.655525a13.311049 13.311049 0 0 1 0 17.114206c0-6.655525-7.606314-9.507892-12.36026 0-4.753946-8.557103 9.507892-6.655525 12.36026-14.261838z m10.458682 15.212628c0 6.655525 5.704735 12.36026 0 19.015784s-10.458682 0-15.212628-6.655524c8.557103 0 10.458682-9.507892 15.212628-12.36026z m12.360259 21.868152c0 5.704735-8.557103 0-13.311049 0s5.704735 8.557103 9.507893 0zM45.061705 499.164345z m-23.769731-9.507892s0 4.753946 0 0v13.311049c0 3.803157-9.507892-7.606314-6.655525-12.36026z m0 41.834726v7.606314c0 1.901578-7.606314 0-12.36026 0s17.114206 0 9.507892-8.557103zM769.563097 74.16156h4.753947C779.07099 74.16156 761.005994 80.817084 761.005994 85.571031s0 0-7.606313 0 0-5.704735 0-6.655525S761.005994 77.013928 761.005994 71.309192s4.753946 0 8.557103 0z m104.586816 84.620241v-5.704735c0-5.704735 0 0 0 0s6.655525 0 0 6.655525 0 0-4.753946 0z m0 4.753946c-5.704735 4.753946-7.606314 0 0 0z m-190.157846-133.110492h-7.606314zM843.724657 142.618384h4.753947z m64.653668 47.539462h0zM737.236264 69.407614v5.704735h-13.31105V70.358403c0-4.753946 9.507892-5.704735 15.212628 0z m132.159703 95.078923c4.753946 0 4.753946 0 0 9.507892s0 0-4.753947 0 0 0 0-8.557103zM751.498102 85.571031v7.606313a7.606314 7.606314 0 0 1 0-7.606313zM681.139699 37.08078z m10.458682 15.212628s-5.704735 5.704735-7.606314 4.753946a6.655525 6.655525 0 0 1 0-5.704736h5.704735z m28.523677 28.523676h10.458681c4.753946 0 0 0 0 4.753947s-4.753946 0-7.606314 0 0 0 0-9.507893z m129.307335 95.078923z m36.12999 24.72052h-5.704735 5.704735z m25.67131 27.572888h0zM562.291045 39.933148V34.228412zM475.769226 33.277623s6.655525-5.704735 10.458681 0a5.704735 5.704735 0 0 0-10.458681 0z m0 0V38.031569c0 4.753946 0 0-4.753947 0s0 0 0-4.753946z m-55.145776 0V26.622098z m-15.212627 16.163417L399.706087 43.736305s7.606314 0 6.655525 5.704735z m0 0v0zM314.135057 51.342618a5.704735 5.704735 0 0 1 0 6.655525s-5.704735 0 0-6.655525z m5.704735 15.212628h0z m-7.606314 7.606314s-6.655525 0 0 0H304.627164s4.753946 0 6.655525-5.704735zM257.087703 95.078923h2.852368z m-11.409471 19.015785h-4.753946a5.704735 5.704735 0 0 1 0-4.753947s0 4.753946 0 0z m-7.606314 0s0 6.655525-4.753946 0 0 0 4.753946 0z m0 21.868152s0-4.753946-5.704735 0 6.655525 0 8.557103 5.704735z m687.420613 82.718663H926.44332z m-142.618384-115.996286h-6.655525c-6.655525 0 0 0 0 0h4.753946a9.507892 9.507892 0 0 0 0 6.655524V104.586815c0-4.753946-4.753946 0 0 0a10.458682 10.458682 0 0 1-19.966574 9.507893 6.655525 6.655525 0 0 0 0-7.606314s0-5.704735 4.753947 0S761.005994 95.078923 761.005994 88.423398s6.655525 0 10.458682 0h7.606314c2.852368 0 0 0 0 0V82.718663c0-5.704735 6.655525 0 6.655524 5.704735s0 0-5.704735 0a9.507892 9.507892 0 0 1 0 5.704736z m36.12999 50.391829h-4.753946c-4.753946 0 0 0 0 0s6.655525 0 9.507893 6.655525 0 0-4.753947 5.704735z m95.078923 59.899721h-6.655524c-0.950789 0 4.753946 0 0 0zM389.247406 31.376045h6.655524c6.655525 0 0 5.704735 0 0z m7.606314 6.655524H390.198195c-6.655525 0 0 0 0-5.704735s0 0 5.704735 0zM262.792438 88.423398v8.557103c0 3.803157-4.753946-1.901578-5.704735-1.901578s6.655525 0 6.655524-9.507892zM246.629021 95.078923V90.324977c0-4.753946 0 0 0 0z m0 27.572888z m0 0z m0 0z m0 0z m0 0z m0 0z" p-id="17545" fill="#8a8a8a"></path><path d="M808.545456 95.078923a512.475395 512.475395 0 0 1-591.390901 835.743733A507.721448 507.721448 0 0 1 22.242763 658.896936a536.245125 536.245125 0 0 1-18.064995-95.078923V541.949861c0-7.606314 0 0 6.655524 0s0 0 0-4.753946L0.374611 531.491179A511.524605 511.524605 0 0 1 312.233478 40.883937h4.753946c-1.901578 0 0 0 0 0v5.704735H328.396895a33.277623 33.277623 0 0 0 0-7.606314s-9.507892 0.950789-12.36026 0A498.213556 498.213556 0 0 1 431.082132 6.655525a518.18013 518.18013 0 0 1 95.078923-5.704736V0s8.557103 0 10.458681 5.704735 0 12.36026 8.557103 10.458682 0 0 0-8.557103 0 0-6.655524 0 0-4.753946 0-7.606314a509.623027 509.623027 0 0 1 161.634169 37.08078 5.704735 5.704735 0 0 1-6.655525 0A13.311049 13.311049 0 0 1 694.450748 47.539461c0 5.704735 8.557103 8.557103 9.507893 12.36026s-6.655525 0-12.36026 0a13.311049 13.311049 0 0 1 0 9.507893h5.704735a24.72052 24.72052 0 0 1 0 9.507892c5.704735 5.704735 7.606314 0 11.409471 0a464.935933 464.935933 0 0 0-285.236769-29.474466 11.409471 11.409471 0 0 0 0-6.655525 12.36026 12.36026 0 0 0 3.803157 2.852368H418.721872s-5.704735 6.655525-6.655525 10.458682h-13.311049A467.788301 467.788301 0 0 0 285.61138 101.734448l-19.015785 12.36026v-5.704736c0-5.704735 0 0 5.704736 0s5.704735 0 0 0A44.687094 44.687094 0 0 1 285.61138 95.078923L279.906644 88.423398c-5.704735-6.655525 0 0 0 0a9.507892 9.507892 0 0 0-9.507892 0V95.078923c0 6.655525 0 0 0 0s-6.655525 0 0 0h-14.261838a12.36026 12.36026 0 0 1-7.606314 0 28.523677 28.523677 0 0 1 6.655524 13.311049h-4.753946a7.606314 7.606314 0 0 0 0-6.655524h-4.753946c-4.753946 0 0 0 0 0v4.753946c0 4.753946 0 0 0 0v5.704735l-19.015784 14.261839a10.458682 10.458682 0 0 1-13.31105 0c0 9.507892-15.212628 0-13.311049 10.458681h10.458682L190.532457 175.896007a519.130919 519.130919 0 0 0-56.096565 65.604457 467.788301 467.788301 0 0 0-85.57103 256.713092l-8.557103 6.655525a475.394615 475.394615 0 0 0 95.078923 290.941504 462.083565 462.083565 0 0 0 101.734447 95.078923 367.955432 367.955432 0 0 0 56.096565 34.228412c0 5.704735 0 6.655525-6.655525 11.409471s6.655525 0 9.507892 0 0-4.753946 0-7.606314a466.837512 466.837512 0 0 0 310.908078 39.933148l-4.753946 6.655524c-4.753946 6.655525 4.753946 0 7.606314 0s0 0 0-4.753946a466.837512 466.837512 0 0 0 173.04364-840.497679L761.005994 116.947075v-4.753946h-6.655524L722.974425 95.078923h-8.557103c-8.557103 0 0 0 0 0h-4.753946V88.423398c0-4.753946 6.655525 0 9.507892 0s0 4.753946-4.753946 0a11.409471 11.409471 0 0 1 0-10.458681S712.515744 57.998143 713.466533 55.145775s10.458682 0 7.606314 0h-5.704736 6.655525l21.868152 10.458682 4.753946 4.753946c4.753946 4.753946 6.655525 0 5.704736 0A701.682451 701.682451 0 0 1 808.545456 95.078923zM27.947499 521.983287c-6.655525 0-10.458682 6.655525-13.31105 0 17.114206-8.557103 0 0-6.655524-12.36026s4.753946 0 6.655524 0 18.064995 5.704735 14.261839 17.114206z m0 0v6.655525c0 1.901578-7.606314-6.655525 0-9.507893z m-7.606314 20.917363a47.539461 47.539461 0 0 0 0 9.507892H6.079346c-3.803157 0 9.507892 0 13.31105-5.704735z m-9.507893-4.753946v4.753946c0 4.753946-5.704735 0-8.557103 0zM15.587239 570.473538s0 7.606314 6.655524 0-7.606314 8.557103 0 10.458681-5.704735 0-8.557103 0S13.68566 570.473538 15.587239 570.473538z m107.439183 222.484679v-8.557103c0-2.852368 0 6.655525 6.655524 8.557103s-7.606314 0-11.409471 0z m14.261838 6.655525a13.311049 13.311049 0 0 1 0 17.114206c0-6.655525-7.606314-9.507892-12.36026 0-4.753946-8.557103 9.507892-6.655525 12.36026-14.261838z m10.458682 15.212628c0 6.655525 5.704735 12.36026 0 19.015784s-10.458682 0-15.212628-6.655524c8.557103 0 10.458682-9.507892 15.212628-12.36026z m12.360259 21.868152c0 5.704735-8.557103 0-13.311049 0s5.704735 8.557103 9.507893 0zM45.061705 499.164345z m-23.769731-9.507892s0 4.753946 0 0v13.311049c0 3.803157-9.507892-7.606314-6.655525-12.36026z m0 41.834726v7.606314c0 1.901578-7.606314 0-12.36026 0s17.114206 0 9.507892-8.557103zM769.563097 74.16156h4.753947C779.07099 74.16156 761.005994 80.817084 761.005994 85.571031s0 0-7.606313 0 0-5.704735 0-6.655525S761.005994 77.013928 761.005994 71.309192s4.753946 0 8.557103 0z m104.586816 84.620241v-5.704735c0-5.704735 0 0 0 0s6.655525 0 0 6.655525 0 0-4.753946 0z m0 4.753946c-5.704735 4.753946-7.606314 0 0 0z m-190.157846-133.110492h-7.606314zM843.724657 142.618384h4.753947z m64.653668 47.539462h0zM737.236264 69.407614v5.704735h-13.31105V70.358403c0-4.753946 9.507892-5.704735 15.212628 0z m132.159703 95.078923c4.753946 0 4.753946 0 0 9.507892s0 0-4.753947 0 0 0 0-8.557103zM751.498102 85.571031v7.606313a7.606314 7.606314 0 0 1 0-7.606313zM681.139699 37.08078z m10.458682 15.212628s-5.704735 5.704735-7.606314 4.753946a6.655525 6.655525 0 0 1 0-5.704736h5.704735z m28.523677 28.523676h10.458681c4.753946 0 0 0 0 4.753947s-4.753946 0-7.606314 0 0 0 0-9.507893z m129.307335 95.078923z m36.12999 24.72052h-5.704735 5.704735z m25.67131 27.572888h0zM562.291045 39.933148V34.228412zM475.769226 33.277623s6.655525-5.704735 10.458681 0a5.704735 5.704735 0 0 0-10.458681 0z m0 0V38.031569c0 4.753946 0 0-4.753947 0s0 0 0-4.753946z m-55.145776 0V26.622098z m-15.212627 16.163417L399.706087 43.736305s7.606314 0 6.655525 5.704735z m0 0v0zM314.135057 51.342618a5.704735 5.704735 0 0 1 0 6.655525s-5.704735 0 0-6.655525z m5.704735 15.212628h0z m-7.606314 7.606314s-6.655525 0 0 0H304.627164s4.753946 0 6.655525-5.704735zM257.087703 95.078923h2.852368z m-11.409471 19.015785h-4.753946a5.704735 5.704735 0 0 1 0-4.753947s0 4.753946 0 0z m-7.606314 0s0 6.655525-4.753946 0 0 0 4.753946 0z m0 21.868152s0-4.753946-5.704735 0 6.655525 0 8.557103 5.704735z m687.420613 82.718663H926.44332z m-142.618384-115.996286h-6.655525c-6.655525 0 0 0 0 0h4.753946a9.507892 9.507892 0 0 0 0 6.655524V104.586815c0-4.753946-4.753946 0 0 0a10.458682 10.458682 0 0 1-19.966574 9.507893 6.655525 6.655525 0 0 0 0-7.606314s0-5.704735 4.753947 0S761.005994 95.078923 761.005994 88.423398s6.655525 0 10.458682 0h7.606314c2.852368 0 0 0 0 0V82.718663c0-5.704735 6.655525 0 6.655524 5.704735s0 0-5.704735 0a9.507892 9.507892 0 0 1 0 5.704736z m36.12999 50.391829h-4.753946c-4.753946 0 0 0 0 0s6.655525 0 9.507893 6.655525 0 0-4.753947 5.704735z m95.078923 59.899721h-6.655524c-0.950789 0 4.753946 0 0 0zM389.247406 31.376045h6.655524c6.655525 0 0 5.704735 0 0z m7.606314 6.655524H390.198195c-6.655525 0 0 0 0-5.704735s0 0 5.704735 0zM262.792438 88.423398v8.557103c0 3.803157-4.753946-1.901578-5.704735-1.901578s6.655525 0 6.655524-9.507892zM246.629021 95.078923V90.324977c0-4.753946 0 0 0 0z m0 27.572888z m0 0z m0 0z m0 0z m0 0z m0 0z" p-id="17546" fill="#8a8a8a"></path><path d="M396.85372 95.078923zM268.497174 585.686165a267.171773 267.171773 0 0 1-9.507893-47.539461v-10.458682c0-2.852368 0 0 0 0v-6.655524L95.453534 570.473538l-10.458682-14.261839H95.453534l165.437326-57.998143a254.811513 254.811513 0 0 1 154.978644-218.681523h-4.753946a248.155989 248.155989 0 0 1 64.653668-19.015784 257.663881 257.663881 0 0 1 49.44104 0h5.704735v5.704735a253.860724 253.860724 0 0 1 80.817084 19.015785v6.655524c0 6.655525 0 0-5.704735 0h5.704735c5.704735 0 0 0 0 0A231.992572 231.992572 0 0 0 464.359755 285.236769v5.704735L455.802652 285.236769a232.943361 232.943361 0 0 0-54.194986 20.917363l-11.409471 7.606314H380.690303a14.261838 14.261838 0 0 1 0 6.655524l-9.507893 7.606314a4.753946 4.753946 0 0 1-6.655524 0s-7.606314 0-6.655525 4.753946h4.753946l-7.606313 7.606314a258.61467 258.61467 0 0 0-28.523677 32.326834A232.943361 232.943361 0 0 0 285.61138 486.804085l391.725162-138.815227a231.992572 231.992572 0 0 0-30.425255-25.671309l-9.507892-6.655525-19.966574-11.409471v-6.655524a5.704735 5.704735 0 0 1 0-4.753946s4.753946 0 0 0h-6.655525L623.141556 285.236769l32.326834 19.966574a255.762303 255.762303 0 0 1 40.883937 36.12999l25.671309-9.507892s6.655525 0 8.557103-4.753946l144.519963-49.44104 6.655525 17.114206-168.289694 59.899722a256.713092 256.713092 0 0 1 47.539461 199.665738l181.600743-63.702879v9.507893A439.264624 439.264624 0 0 0 844.675447 228.189415a7.606314 7.606314 0 0 1-4.753947-4.753946l-11.40947-12.36026A421.199629 421.199629 0 0 0 761.005994 154.978644V152.126277a450.674095 450.674095 0 0 0-72.259981-38.982359h-8.557103c-2.852368 0 0 0 0-6.655524L646.911287 95.078923A437.363045 437.363045 0 0 0 475.769226 77.013928v3.803156a484.902507 484.902507 0 0 0-66.555246 12.36026V95.078923h-5.704736a429.756732 429.756732 0 0 0-104.586815 43.736304s4.753946-5.704735 8.557103 0 0 4.753946 0 4.753947v-7.606314c0-7.606314 11.409471 22.818942 0 22.818941s0 6.655525 0 0v-8.557103 9.507893c0 0.950789-7.606314 6.655525-6.655525 10.458681S285.61138 163.535747 285.61138 159.732591s-12.36026-7.606314-19.015785 0 5.704735 0 6.655525 0h-5.704736a6.655525 6.655525 0 0 1-5.704735 0s0-6.655525 5.704735-6.655525h-5.704735s0 10.458682-8.557103 10.458681-4.753946 6.655525-7.606314 6.655525a5.704735 5.704735 0 0 1 0-5.704735 440.215413 440.215413 0 0 0-95.078923 95.078923A434.510678 434.510678 0 0 0 76.437749 492.508821a15.212628 15.212628 0 0 1 0 9.507892 441.166202 441.166202 0 0 0 62.752089 236.746518l16.163417 24.72052 166.388115-58.948932 16.163417-5.704735a252.909935 252.909935 0 0 1-69.407613-113.143919z m480.14856-220.583101s1.901578 2.852368 0 0z m0 6.655525h-2.852367z m4.753947 0h5.704735c0.950789 0-5.704735 2.852368-8.557103 0zM761.005994 380.315692s5.704735-5.704735 0 0z m0 18.064995a7.606314 7.606314 0 0 1 4.753947 0s2.852368-0.950789 2.852367-3.803157z m60.850511-59.899721s9.507892-4.753946 7.606314-2.852368z m12.36026-6.655525v-11.409471c0-4.753946 0 0 6.655525 0z m0-64.653668s9.507892-2.852368 10.458682-2.852367z m-15.212628-44.687093v5.704735l10.458682-8.557103z m-15.212627-5.704736s6.655525 6.655525 0 12.36026 6.655525-10.458682 10.458681-15.212627z m-44.687094 42.785516s8.557103-4.753946 10.458681-2.852368z m0-56.096565h-5.704735c-5.704735 0 7.606314-0.950789 7.606313-1.901578z m-18.064995 33.277623V228.189415c0-1.901578 0 0 0 0s11.409471 5.704735 5.704735 6.655525z m5.704735-79.866295H761.005994s-11.409471 2.852368-8.557103-2.852368z m0 0v4.753946c0 4.753946 0 0 0 0s-1.901578-8.557103 0.950789-10.458682z m-5.704735 58.948932s2.852368-6.655525 1.901578-5.704735z m0-55.145775v7.606314a10.458682 10.458682 0 0 1-4.753947-5.704736s4.753946-6.655525 6.655525-7.606314z m0 61.8013h7.606313c7.606314 0 0 0 0 6.655524s0 0 4.753947 0 0 5.704735-7.606314 7.606314 0-4.753946 0 0v-5.704735c0-5.704735 0 0 4.753946 0s-11.409471-12.36026-11.409471-14.261839z m0 61.8013v5.704735c0 5.704735-5.704735-10.458682-4.753947-12.36026zM694.450748 190.157846a4.753946 4.753946 0 0 1 0 5.704735S690.647591 190.157846 694.450748 190.157846z m0 95.078923s0 4.753946 6.655525 0-5.704735 0-5.704735 0z m10.458682-10.458682a8.557103 8.557103 0 0 1 0 10.458682s-4.753946-5.704735-7.606314 0 6.655525-10.458682 7.606314-15.212628z m-7.606314 31.376045h8.557103c3.803157 0-5.704735-1.901578-8.557103-4.753946z m0 0H708.712587c4.753946 0-6.655525-6.655525-13.311049-9.507892z m16.163417-6.655525h-9.507892c-2.852368 0 5.704735-5.704735 8.557103-7.606314s2.852368-6.655525-0.950789-0.950789z m-4.753946-22.818941v-6.655525 5.704736h5.704735c5.704735 0-4.753946-9.507892-7.606314-7.606314z m17.114206 0a24.72052 24.72052 0 0 1 0 10.458681h4.753946c-7.606314 0-4.753946-7.606314-8.557103-10.458681s0-12.36026 1.901578-10.458682zM717.26969 161.634169z m0-6.655525h-5.704735c-5.704735 0 3.803157-2.852368 3.803156 0z m-5.704735-14.261838v6.655525c0 6.655525-3.803157-3.803157-1.901579-6.655525z m-8.557104 117.897864h4.753947c4.753946 0-2.852368 1.901578-4.753947 0z m4.753947-22.818941h-5.704736c-5.704735 0 3.803157-0.950789 5.704736-0.950789z m-4.753947 31.376044h-6.655524c-6.655525 0 0 0 0-4.753946s1.901578 2.852368 6.655524 3.803157z m-15.212627-133.110492s0 7.606314-4.753946 0 3.803157 0.950789 4.753946 0z m0 19.015785c0 4.753946 5.704735 8.557103 10.458681 0s0 0-4.753946 6.655525 0 0 0-4.753947-9.507892-0.950789-7.606314-1.901578z m-5.704736-28.523677s-4.753946-2.852368-1.901578 0z m0 58.948932v4.753946h-5.704735c-5.704735 0 2.852368 1.901578 3.803157-4.753946z m-7.606313 106.488394S665.927071 290.941504 665.927071 285.236769l8.557104 4.753946z m-15.212628-24.72052s-0.950789 1.901578 0.950789 0z m0-158.781801H658.320758z m-6.655525 157.831012h0z m-29.474466 0z m4.753946-125.504179V133.110492c0-5.704735 0 0 4.753946 0s0 4.753946 0 6.655525z m0-23.76973s0.950789 3.803157-0.950789 0.950789z m4.753946 75.112349s0-6.655525 0 0 1.901578 0 0 0z m0-67.506035h8.557104c2.852368 0 0 0 0 5.704735s-9.507892-1.901578-12.36026-5.704735z m10.458682-7.606314h-6.655525c-6.655525 0 6.655525-5.704735 6.655525 0s-3.803157-0.950789-3.803157 0z m0-8.557103s-3.803157 1.901578-0.950789 0zM630.74787 95.078923c7.606314 5.704735 10.458682 0 8.557103 10.458681s-6.655525 0-8.557103 0h-8.557103c-0.950789 0 8.557103-10.458682 8.557103-10.458681z m0 15.212628h-5.704735c-5.704735 0 0 0 1.901578-0.95079z m0 17.114206z m0 137.864438s-12.36026-2.852368-10.458682-0.950789z m-61.8013-30.425255s-9.507892-1.901578-10.458681-0.95079zM570.848149 201.567317zM570.848149 190.157846h-7.606314c-1.901578 0 0 0 0 0h17.114206H570.848149z m8.557103-59.899722s0 3.803157 1.901578 1.901579z m13.311049 38.982359v4.753946c0 4.753946 0.950789-1.901578 1.901578-2.852368z m0 28.523677v-10.458682c0-1.901578 0 0 4.753946 0s0 0 0 5.704736-10.458682 0-9.507892 8.557103 3.803157-3.803157 6.655524-1.901579z m-6.655525-28.523677c0-4.753946 0-4.753946-9.507892-7.606314s6.655525 0 8.557103 0 0 6.655525 0 5.704735a4.753946 4.753946 0 0 1 2.852368 4.753947z m0-44.687094H580.356041c-0.950789 0 8.557103 0 10.458681 1.901579zM581.30683 95.078923v9.507892c0 2.852368-10.458682-1.901578-10.458681-9.507892s8.557103 0 10.458681 0z m-17.114206 80.817084s1.901578-1.901578 0-0.950789z m0-64.653667c0 4.753946-6.655525 0-9.507892 0s10.458682 2.852368 16.163417-0.950789zM554.684732 95.078923s-2.852368 5.704735 0 0z m-8.557103 10.458681v3.803157z m-5.704736 123.6026c0 4.753946-4.753946 0-6.655524 7.606314s0 0-6.655525 0 0-4.753946 0-6.655524 7.606314 0 6.655525 0 3.803157-3.803157 6.655524-0.95079z m-11.409471-129.307335s-4.753946 0 0-5.704735h6.655525V92.226555v8.557103c0 3.803157 0 0-4.753946 0s0 8.557103-6.655525 6.655525 1.901578-12.36026 4.753946-7.606314z m-137.864438 133.110492s0.950789-3.803157 0 0z m38.031569-28.523677s1.901578-2.852368 0-0.950789z m0 7.606314s-4.753946 0 0-4.753946 7.606314 0 4.753947 3.803157z m0 34.228412h5.704736c5.704735 0 3.803157 3.803157 3.803157-0.950789z m64.653668-61.8013l-4.753946-10.458681a10.458682 10.458682 0 0 1 9.507892 4.753946z m13.311049-17.114206c5.704735 0 0 0 0 6.655525s8.557103-5.704735 8.557103-6.655525z m2.852368-86.52182c6.655525 0 0 9.507892 0 0z m-13.311049 7.606314h4.753946c4.753946 0 0 0 0 6.655525s-7.606314 0-4.753946-6.655525z m0 35.179202h5.704735l-6.655525 6.655524c-6.655525 6.655525 0 0-6.655524 0s7.606314-5.704735 10.458681-7.606313zM475.769226 126.454968z m0 20.917363l8.557103 15.212627L475.769226 141.667595a10.458682 10.458682 0 0 1 7.606313 4.753946zM419.672661 95.078923s-1.901578 0 0 0z m0 52.293408h14.261839l-5.704736-7.606314h6.655525c6.655525 0 0-4.753946 0-8.557103s7.606314 0 0 0h6.655524l4.753947 8.557103c0 4.753946 0 0-5.704736 0s0 0 0 4.753946 0 0 5.704736 0 0 6.655525-5.704736 4.753946 0 6.655525 0 10.458682 8.557103-4.753946 11.409471-6.655525l12.36026 22.818941v6.655525c0 6.655525 0 0 0 0L475.769226 190.157846V191.108635c0 0.950789 0 0 0 0a12.36026 12.36026 0 0 0-10.458682 0l-15.212628-21.868152h15.212628l-8.557103-11.409471h-19.015785l-19.015784-24.72052z m0 95.078922a9.507892 9.507892 0 0 1-6.655525 0s0 4.753946 1.901579 0.95079zM406.361612 95.078923a14.261838 14.261838 0 0 0-6.655525 0h6.655525z m-10.458682 95.078923v-4.753946c0-4.753946 0 0 0 0H390.198195h8.557103s-4.753946 10.458682-14.261838 5.704735 0 0 6.655524 0-8.557103 0-6.655524-8.557103 0 0-4.753947 0 11.409471 7.606314 16.163417 7.606314z m-8.557103-62.752089v5.704735c0-0.950789-6.655525-2.852368 0-3.803157zM380.690303 172.092851v-6.655525h6.655524H380.690303h5.704735c5.704735 0 0 0 0 7.606314s0 0-5.704735 0 0 0 0 5.704735 0 0-6.655525 0 0-4.753946-4.753946-6.655524 11.409471 1.901578 11.409471 0z m-46.588673 34.228412h-6.655524z m-5.704735 0v4.753946z m5.704735 9.507892h13.31105l15.212627 16.163417s0 6.655525-4.753946 7.606314 0 0 4.753946 0a18.064995 18.064995 0 0 1-13.311049 8.557103l-15.212628-10.458682c6.655525-9.507892-6.655525-7.606314-8.557103-13.311049a8.557103 8.557103 0 0 0-4.753946 0z m0 19.015785s-0.950789 1.901578 0 1.901578z m-19.015784 0l22.818941 20.917363a6.655525 6.655525 0 0 1 0 5.704735l-17.114206-13.311049-6.655524-6.655525z m-12.36026-12.36026l8.557103 8.557103h-10.458682c-4.753946 0 2.852368 0.950789 1.901579-1.901579zM147.746942 523.884865v-8.557103c0-2.852368-5.704735 0-9.507893 0a15.212628 15.212628 0 0 1 19.966574 0c-3.803157 8.557103-7.606314 2.852368-10.458681 8.557103z m68.456824-21.868152a13.311049 13.311049 0 0 1 0-12.36026s5.704735 10.458682 0 12.36026z m43.736305-270.97493z m-5.704736-12.36026l10.458682 8.557103-13.311049-11.409471a6.655525 6.655525 0 0 1 2.852367 2.852368zM245.678232 475.394615v4.753946z m-19.015784 0v14.261838L190.532457 475.394615z m-47.539462 17.114206c0-8.557103-8.557103 0-12.36026 0s-6.655525-4.753946 0-16.163417h18.064995c7.606314 0-1.901578 13.311049-5.704735 16.163417z m-4.753946-26.622099h-19.966574c0 8.557103-13.311049 14.261838-6.655524 22.818942s0-5.704735 0-10.458682l9.507892 6.655525s0 19.015785 9.507892 10.458681 0 8.557103-6.655525 11.409471 0 0-5.704735-8.557103-19.015785 8.557103-22.818941 0 9.507892 0 14.261838 0-7.606314-4.753946-11.409471 0-7.606314-10.458682 0-17.114206 0 0 0-6.655525h-2.852367 37.08078c3.803157 0 0 0 0 0z m-39.933148 0v4.753947a6.655525 6.655525 0 0 0-0.950789-2.852368z m24.72052 0v-8.557103h8.557103s-5.704735 8.557103-9.507892 8.557103z m0-28.523677H152.500888z m-45.637883 0l20.917363 10.458682c-9.507892 9.507892-11.409471-6.655525-19.966574-6.655525l6.655525 16.163417 7.606314 18.064996c-6.655525 0-6.655525 0-6.655525-16.163417-12.36026 0-6.655525-6.655525-6.655524-16.163417z m-7.606314-39.933147c4.753946 0 0 4.753946 5.704736 8.557103s-10.458682-0.950789-4.753946-9.507892z m-10.458681 9.507892s0 6.655525-7.606314 0 7.606314 1.901578 7.606314 0zM88.798009 524.835655c4.753946 0 9.507892 0 15.212628 4.753946a8.557103 8.557103 0 0 0 0-4.753946h6.655525L95.453534 539.097493H82.142485c-4.753946 0 2.852368-9.507892 6.655524-14.261838z m21.868153 45.637883c0 7.606314 0 12.36026-8.557104 0s6.655525 0 8.557104 0z m8.557103 103.636026S114.469318 665.552461 120.174054 665.552461a7.606314 7.606314 0 0 1-0.950789 5.704735z m0-50.39183s-18.064995-17.114206-23.769731-10.458681 0-8.557103 7.606314-10.458682 10.458682 13.311049 17.114206 6.655525-2.852368 6.655525-5.704736 11.409471z m32.326833-15.212627h8.557103s-10.458682 0.950789-13.311049-2.852368z m57.047354 105.537604s-5.704735-0.950789-4.753946-2.852367z m11.409471-105.537604h4.753946s-3.803157 0.950789-4.753946 0z m95.078923 95.078923s0.950789-0.950789 2.852368-4.753946z" p-id="17547" fill="#8a8a8a"></path><path d="M691.598381 362.250696L276.103487 508.672238a235.795729 235.795729 0 0 0 47.539462 145.470752 231.041783 231.041783 0 0 0 39.933148 40.883937l376.512534-132.159703a234.84494 234.84494 0 0 0-48.49025-200.616528zM761.005994 575.227484a254.811513 254.811513 0 0 1-395.528319 145.470752h-5.704735l-36.129991 12.36026-153.077066 54.194986A436.412256 436.412256 0 0 0 951.16384 508.672238zM225.711658 839.54689v-5.704736-4.753946a9.507892 9.507892 0 0 1 0 10.458682z m15.212628-56.096565s4.753946-7.606314 8.557103 0a12.36026 12.36026 0 0 1-8.557103 0z m74.16156-28.523677v7.606314c0 1.901578 2.852368-1.901578-0.950789-7.606314z m51.342618 0h-5.704735c-5.704735 0 0-4.753946 0-7.606314s0 0 5.704735-5.704735-3.803157 11.409471-0.950789 13.311049z m-6.655524-15.212628s0 5.704735-6.655525 0a7.606314 7.606314 0 0 1 6.655525 0.95079z m-4.753946 0h-9.507893v6.655525c-5.704735 0-6.655525-5.704735-11.409471-6.655525s0-4.753946 0-6.655524 10.458682 0 14.261839-4.753946-1.901578 13.311049 5.704735 15.212627z m-21.868153-14.261838v6.655525c0 6.655525-2.852368-0.950789-0.950789-2.852368z m0 44.687094c-4.753946 0 0-8.557103 0-5.704736s4.753946-11.409471 0-13.311049 4.753946 0 6.655525 0-5.704735 13.311049 0 8.557103-11.409471 6.655525-10.458682 14.261839z m12.36026 0s5.704735 0 6.655525 6.655524-7.606314 0-12.36026-6.655524 0 7.606314 1.901578 1.901578z m5.704736 137.864438a10.458682 10.458682 0 0 0 0-4.753946h4.753946c4.753946 0-5.704735 3.803157-8.557103 6.655524z m20.917363-11.409471l-5.704736 7.606314c0 4.753946-6.655525 0-8.557103 0s5.704735-10.458682 5.704736-19.015784 5.704735 7.606314 11.40947 6.655524z m0-105.537604H380.690303c1.901578 0-12.36026 0.950789-15.212628 1.901578z m38.031569 55.145775S380.690303 830.989786 380.690303 848.103993c0 0-9.507892 0-7.606314-5.704736a60.850511 60.850511 0 0 0 20.917363-8.557103s4.753946 8.557103 8.557103 12.36026zM475.769226 855.710306h0z m8.557103 26.622099C475.769226 871.873723 475.769226 869.972145 475.769226 874.726091s7.606314-5.704735 9.507892-11.409471a10.458682 10.458682 0 0 1-2.852368 14.261839z m10.458681 15.212627c0-6.655525 0 6.655525 7.606314 0-1.901578 2.852368-5.704735-2.852368-9.507892-4.753946z m179.699165-168.289693v6.655525c0 6.655525-1.901578-3.803157 0-6.655525z m-138.815228 161.634169V884.233983c0-6.655525 2.852368 6.655525 0 6.655525z m16.163417 0s0-6.655525 0 0 2.852368 0.950789 0 3.803157z m83.669452-95.078923c0-4.753946-10.458682-9.507892-5.704735-16.163417s9.507892 17.114206 6.655524 22.818942z m15.212628 0v-7.606314s2.852368 10.458682 0.950789 14.261839z m25.671309 0S665.927071 803.416899 665.927071 799.613742s7.606314 4.753946 11.409471 6.655524zM665.927071 855.710306h0z m30.425256 44.687094s-17.114206-13.311049-17.114206 0-7.606314 0-6.655525 0a63.702878 63.702878 0 0 0 17.114206-6.655524s0 6.655525 6.655525 9.507892z" p-id="17548" fill="#8a8a8a"></path><path d="M406.361612 719.747447v5.704735c0 5.704735 0 0 0 0a232.943361 232.943361 0 0 0 154.978644 19.966574 231.992572 231.992572 0 0 0 171.142062-154.978645L380.690303 707.387187zM438.688446 137.864438v4.753946c0 4.753946 0 0 0 0s1.901578-2.852368 0-4.753946zM341.707944 243.402043c0-4.753946 0 0 7.606314 0s0 0 0-5.704736 0 6.655525-6.655524 0-2.852368 4.753946-0.95079 5.704736z" p-id="17549" fill="#8a8a8a"></path></svg>